<?xml version="1.0" standalone="no"?>
<!DOCTYPE svg PUBLIC "-//W3C//DTD SVG 20010904//EN"
 "http://www.w3.org/TR/2001/REC-SVG-20010904/DTD/svg10.dtd">
<svg version="1.0" xmlns="http://www.w3.org/2000/svg"
 width="595.000000pt" height="447.000000pt" viewBox="0 0 595.000000 447.000000"
 preserveAspectRatio="xMidYMid meet">

<g transform="translate(0.000000,447.000000) scale(0.100000,-0.100000)"
fill="#000000" stroke="none">
<path d="M0 2235 l0 -2235 2975 0 2975 0 0 873 c0 657 -3 876 -12 885 -9 9 -9
17 1 36 9 16 11 40 7 72 -4 27 -8 70 -9 96 -3 57 -15 72 -23 30 -8 -38 -34
-43 -34 -7 0 26 39 75 60 75 7 0 10 87 10 266 0 174 -3 263 -10 259 -5 -3 -10
-13 -10 -21 0 -19 -13 -18 -42 6 -29 22 -39 59 -43 145 -1 33 -7 71 -12 85
-10 24 -13 25 -84 20 -82 -6 -74 3 -78 -82 -1 -10 -7 -18 -15 -18 -7 0 -19 -7
-26 -15 -11 -13 -10 -18 6 -29 10 -8 22 -12 25 -10 17 10 28 -29 33 -116 4
-52 9 -120 11 -150 5 -47 4 -51 -6 -30 -7 14 -21 43 -31 64 -11 22 -21 64 -24
94 -4 61 -23 96 -25 46 -1 -29 -1 -29 -20 11 -10 22 -19 55 -19 73 0 25 -5 35
-20 39 -24 6 -26 19 -4 27 20 8 9 26 -16 26 -20 0 -53 40 -70 85 l-10 27 45
-4 45 -3 0 52 c0 29 -3 53 -7 54 -5 0 -27 3 -50 5 -40 5 -68 -10 -46 -25 7 -4
7 -15 1 -30 l-9 -25 -13 25 c-7 13 -28 53 -48 89 -31 55 -37 78 -43 153 l-7
87 -47 0 c-44 0 -47 2 -77 48 -17 26 -52 79 -77 118 -50 75 -59 101 -29 88 9
-4 28 -8 42 -8 25 -1 54 -19 44 -28 -2 -3 -2 -24 2 -47 6 -37 9 -41 35 -41 26
0 27 2 22 38 -3 20 -10 42 -14 48 -11 14 -1 24 22 24 12 0 19 -9 21 -27 5 -42
26 -39 24 4 -1 34 2 38 29 44 17 4 -37 7 -118 7 -82 0 -150 2 -151 4 -44 51
-216 296 -216 308 0 17 230 248 357 358 94 81 202 163 318 239 l79 53 -1207 0
-1207 0 -6 -23 c-3 -13 -4 -99 -2 -191 l3 -167 -39 3 c-22 2 -41 9 -44 16 -2
7 2 10 11 6 23 -8 41 30 22 46 -8 6 -19 9 -24 5 -6 -3 -9 0 -6 7 3 8 -2 14
-14 15 -11 1 -21 -6 -24 -19 -3 -11 -10 -17 -17 -13 -8 5 -7 11 2 23 11 13 10
15 -14 10 -17 -3 -29 0 -32 8 -3 8 -12 11 -22 7 -11 -4 -22 1 -30 12 -8 10
-14 14 -14 7 0 -6 -7 -9 -15 -6 -8 4 -15 12 -15 19 0 14 -29 29 -38 20 -3 -3
0 -5 6 -5 17 0 15 -20 -2 -26 -8 -3 -24 4 -35 15 -12 12 -31 21 -43 21 -23 1
-23 1 -3 16 11 8 19 22 17 31 -2 9 2 19 9 23 7 5 13 21 15 37 1 15 5 45 7 66
l5 37 -370 0 c-361 0 -370 -1 -365 -19 3 -14 1 -18 -9 -14 -8 3 -14 -1 -14
-11 0 -9 -4 -16 -9 -16 -5 0 -11 -7 -13 -15 -2 -10 -8 -12 -17 -5 -12 7 -12
11 -2 24 7 8 10 24 6 35 -6 21 -8 21 -1026 21 l-1019 0 0 -2235z m144 2194
c-3 -40 -9 -45 -38 -31 -40 18 -22 55 30 61 5 0 9 -13 8 -30z m2018 -62 c-6
-7 -9 -23 -5 -35 6 -25 -20 -62 -44 -62 -16 0 -16 5 -3 31 13 23 4 25 -16 4
-25 -25 -41 -18 -36 15 4 29 6 30 38 24 20 -4 34 -2 34 4 0 5 -13 12 -30 16
-39 7 -38 19 3 37 29 13 34 12 51 -3 14 -13 16 -21 8 -31z m556 -59 c-3 -7
-18 -14 -34 -16 -28 -3 -28 -3 -9 12 24 19 48 21 43 4z m-388 -13 c0 -8 -4
-15 -9 -15 -13 0 -22 16 -14 24 11 11 23 6 23 -9z m-2200 -9 c0 -18 -17 -29
-30 -21 -8 5 -7 11 1 21 15 18 29 18 29 0z m2095 -27 c-6 -16 -9 -18 -16 -8
-4 8 -3 19 3 26 15 18 21 9 13 -18z m375 1 c0 -5 -4 -10 -10 -10 -5 0 -10 5
-10 10 0 6 5 10 10 10 6 0 10 -4 10 -10z m-470 -10 c0 -5 -4 -10 -9 -10 -6 0
-13 5 -16 10 -3 6 1 10 9 10 9 0 16 -4 16 -10z m-2002 -27 c4 -28 -21 -48 -37
-29 -9 11 -10 20 -1 36 13 25 34 22 38 -7z m270 19 c15 -10 5 -42 -13 -42 -12
0 -25 21 -25 41 0 11 21 12 38 1z m1077 -11 c3 -5 1 -12 -5 -16 -5 -3 -10 1
-10 9 0 18 6 21 15 7z m595 -1 c0 -5 -7 -10 -16 -10 -8 0 -12 5 -9 10 3 6 10
10 16 10 5 0 9 -4 9 -10z m80 -21 c0 -6 -13 -24 -30 -42 -24 -26 -32 -29 -42
-19 -10 10 -10 15 -1 20 6 4 11 16 10 27 -1 14 3 19 15 17 9 -1 19 2 23 8 7
12 25 4 25 -11z m565 -19 c3 -5 1 -10 -4 -10 -6 0 -11 5 -11 10 0 6 2 10 4 10
3 0 8 -4 11 -10z m218 -16 c-7 -18 -27 -13 -31 9 -2 11 2 14 17 10 12 -3 17
-11 14 -19z m-2864 7 c7 -5 10 -14 6 -20 -5 -9 -10 -9 -21 0 -26 22 -14 38 15
20z m2459 -13 c-6 -18 -28 -21 -28 -4 0 9 7 16 16 16 9 0 14 -5 12 -12z m109
-10 c-3 -8 -6 -5 -6 6 -1 11 2 17 5 13 3 -3 4 -12 1 -19z m220 -16 c0 -7 -7
-10 -14 -7 -8 3 -19 5 -24 5 -6 0 -8 4 -5 8 8 13 43 9 43 -6z m-226 -22 c18 0
9 -18 -12 -23 -35 -9 -49 1 -37 28 9 21 13 22 25 9 8 -8 19 -14 24 -14z m489
14 c0 -8 -5 -12 -10 -9 -6 4 -8 11 -5 16 9 14 15 11 15 -7z m-190 -15 c0 -14
-16 -11 -29 5 -10 12 -8 13 8 9 12 -3 21 -9 21 -14z m-2687 -8 c3 -14 1 -18
-9 -14 -8 3 -14 11 -14 19 0 21 17 17 23 -5z m1817 -41 c0 -5 -5 -10 -11 -10
-5 0 -7 5 -4 10 3 6 8 10 11 10 2 0 4 -4 4 -10z m966 -492 c9 -14 -14 -27 -37
-21 -18 5 -25 23 -13 35 7 8 43 -2 50 -14z m-72 -15 c7 -17 -9 -33 -31 -33
-14 0 -16 10 -7 34 8 21 30 20 38 -1z m846 -93 c85 -33 126 -67 149 -120 33
-76 24 -122 -15 -78 -11 11 -40 35 -66 53 -44 29 -178 151 -178 161 0 11 65 2
110 -16z m-2880 -80 c0 -5 -7 -10 -15 -10 -8 0 -15 5 -15 10 0 6 7 10 15 10 8
0 15 -4 15 -10z m1690 -6 c0 -8 4 -13 8 -10 4 2 8 -4 8 -15 0 -16 -7 -19 -40
-19 -39 0 -40 0 -18 16 12 8 22 22 22 30 0 8 5 14 10 14 6 0 10 -7 10 -16z
m86 0 c-3 -8 -2 -12 4 -9 6 3 10 1 10 -4 0 -6 -4 -11 -9 -11 -5 0 -15 -2 -23
-5 -9 -4 -13 3 -13 20 0 18 5 25 19 25 12 0 16 -5 12 -16z m-26 -63 c0 -11
-77 -31 -85 -23 -3 4 9 12 27 18 41 15 58 17 58 5z m-620 -27 c0 -8 -10 -14
-25 -14 -29 0 -33 15 -8 29 21 11 33 6 33 -15z m265 16 c-3 -5 -10 -10 -16
-10 -5 0 -9 5 -9 10 0 6 7 10 16 10 8 0 12 -4 9 -10z m2090 -90 c-12 -62 -11
-74 8 -78 10 -2 17 3 17 12 0 26 17 18 34 -16 17 -33 21 -68 8 -68 -8 0 -42
-90 -42 -112 0 -20 -70 -15 -86 6 -6 9 -14 13 -17 9 -11 -10 -36 17 -30 33 9
23 -26 16 -52 -11 -14 -13 -25 -31 -25 -40 0 -20 -27 -19 -39 2 -12 22 18 82
117 232 l75 114 19 -24 c15 -18 18 -32 13 -59z m-1935 20 c0 -5 -5 -10 -11
-10 -5 0 -7 5 -4 10 3 6 8 10 11 10 2 0 4 -4 4 -10z m-783 -6 c-3 -3 -12 -4
-19 -1 -8 3 -5 6 6 6 11 1 17 -2 13 -5z m696 -11 c-18 -2 -48 -2 -65 0 -18 2
-4 4 32 4 36 0 50 -2 33 -4z m-406 -29 c-3 -3 -12 -4 -19 -1 -8 3 -5 6 6 6 11
1 17 -2 13 -5z m-364 -15 l32 -1 -33 -11 c-28 -9 -36 -7 -50 8 -16 17 -16 17
1 11 10 -3 33 -6 50 -7z m780 -56 c-18 -2 -48 -2 -65 0 -18 2 -4 4 32 4 36 0
50 -2 33 -4z m2931 -9 c3 -8 2 -12 -4 -9 -6 3 -10 10 -10 16 0 14 7 11 14 -7z
m-1246 -324 c1 -146 2 -301 1 -345 0 -44 0 -87 0 -95 3 -92 -1 -805 -5 -809
-9 -9 -1488 -6 -1502 3 -9 5 -12 178 -12 755 0 411 3 751 7 754 3 4 344 6 757
5 l751 -3 3 -265z m459 213 c14 -32 23 -76 26 -129 l5 -81 -24 11 c-14 7 -24
20 -24 33 0 23 -19 43 -21 21 0 -10 -2 -10 -6 0 -2 6 -9 10 -13 7 -8 -5 -30
55 -30 82 0 7 8 28 17 48 12 24 19 31 25 23 5 -9 8 -6 8 10 0 35 13 26 37 -25z
m980 -85 c-3 -7 -5 -2 -5 12 0 14 2 19 5 13 2 -7 2 -19 0 -25z m-913 -210 c11
-30 1 -56 -39 -102 -12 -14 -33 -42 -46 -61 -13 -19 -26 -35 -29 -35 -6 0 -38
48 -74 111 l-26 46 23 21 c27 25 95 44 82 22 -5 -9 -4 -11 4 -6 6 4 9 11 6 16
-6 10 28 18 65 16 17 -1 27 -9 34 -28z m1216 -217 c-19 -16 -37 -27 -39 -25
-8 7 42 54 58 54 9 0 2 -11 -19 -29z m-3500 -25 c0 -31 -13 -46 -40 -46 -15 0
-19 29 -7 54 18 39 47 34 47 -8z m-411 -22 c24 -30 38 -77 47 -151 l7 -53 -51
0 c-43 0 -57 -5 -85 -30 -19 -16 -42 -30 -51 -30 -9 0 -16 -8 -16 -19 0 -17
-12 -19 -125 -26 l-125 -7 -29 31 c-16 17 -37 32 -48 32 -10 1 -27 2 -38 3
-11 1 -19 7 -17 14 1 6 -3 11 -9 10 -18 -4 -18 42 0 52 15 9 15 11 0 22 -22
18 -30 46 -20 66 5 9 12 25 15 35 8 25 50 19 54 -8 2 -11 7 -24 12 -28 9 -10
62 2 55 13 -3 4 2 10 10 14 20 7 19 26 -2 26 -11 0 -14 3 -7 10 13 13 252 46
356 49 39 1 50 -3 67 -25z m-1650 -21 c-1 -33 -17 -78 -18 -52 -1 9 -4 31 -7
48 -5 24 -3 31 10 31 11 0 16 -8 15 -27z m1758 -40 c-3 -10 -5 -4 -5 12 0 17
2 24 5 18 2 -7 2 -21 0 -30z m3913 8 c0 -6 -4 -13 -10 -16 -5 -3 -10 1 -10 9
0 9 5 16 10 16 6 0 10 -4 10 -9z m6 -86 c-9 -23 -26 -9 -26 23 0 24 1 25 16
10 10 -9 14 -24 10 -33z m-5346 23 c0 -7 -11 -31 -25 -53 l-24 -40 -1 34 c0
19 7 43 17 53 19 21 33 23 33 6z m1449 -46 c0 -30 -2 -33 -9 -17 -12 28 -12
67 0 60 6 -3 10 -23 9 -43z m-1419 -84 c0 -7 3 -30 6 -50 l7 -38 -42 0 c-22 0
-41 5 -41 10 0 15 51 90 61 90 5 0 9 -6 9 -12z m1018 -98 c46 0 92 5 103 10
17 10 19 7 19 -27 0 -34 -6 -41 -48 -70 -26 -18 -62 -33 -80 -35 -23 -2 -32
-7 -32 -20 0 -10 5 -18 10 -18 6 0 10 -4 10 -10 0 -5 -9 -10 -19 -10 -16 0
-20 8 -23 38 -3 35 -5 37 -41 40 -29 3 -39 -1 -43 -15 -22 -64 -27 -69 -66
-72 -33 -2 -39 1 -36 16 2 11 14 19 31 21 21 3 36 15 58 50 16 25 29 56 29 69
0 29 21 55 35 42 5 -5 47 -9 93 -9z m3089 -32 c-3 -7 -5 -2 -5 12 0 14 2 19 5
13 2 -7 2 -19 0 -25z m-2957 -68 c0 -13 -7 -20 -20 -20 -19 0 -19 1 -3 20 10
11 19 20 20 20 2 0 3 -9 3 -20z m-1220 -12 c0 -13 -32 -6 -37 9 -3 7 3 9 16 6
12 -3 21 -10 21 -15z m4237 -334 c-3 -3 -12 -4 -19 -1 -8 3 -5 6 6 6 11 1 17
-2 13 -5z m40 -10 c-3 -3 -12 -4 -19 -1 -8 3 -5 6 6 6 11 1 17 -2 13 -5z m10
-61 c-3 -10 -5 -2 -5 17 0 19 2 27 5 18 2 -10 2 -26 0 -35z m-4607 -1148 c20
-21 3 -47 -38 -60 -20 -6 -32 -16 -32 -26 0 -10 -4 -21 -10 -24 -12 -7 -14
117 -3 129 11 11 65 -2 83 -19z m947 3 c24 -22 27 -43 17 -97 -5 -26 -11 -31
-35 -31 -60 0 -93 86 -49 130 26 26 38 25 67 -2z m173 6 c0 -8 -5 -12 -10 -9
-6 4 -8 11 -5 16 9 14 15 11 15 -7z m-603 -26 c-3 -7 -5 -2 -5 12 0 14 2 19 5
13 2 -7 2 -19 0 -25z m660 -36 c-8 -17 -8 -29 1 -43 16 -24 15 -30 -2 -23 -15
6 -27 83 -18 116 5 20 5 20 17 -3 10 -17 10 -29 2 -47z m-497 43 c0 -8 -4 -15
-10 -15 -5 0 -10 7 -10 15 0 8 5 15 10 15 6 0 10 -7 10 -15z m-616 -40 c-13
-13 -21 -30 -18 -38 3 -8 1 -18 -5 -22 -7 -4 -11 8 -11 33 0 45 1 47 34 50
l25 2 -25 -25z m113 10 c8 -22 -3 -29 -49 -34 -4 -1 -5 -8 -1 -17 4 -11 13
-14 29 -10 27 7 33 -8 8 -18 -33 -13 -70 26 -57 62 13 33 59 45 70 17z m102 6
c8 -5 9 -11 3 -15 -6 -3 -13 -2 -17 4 -9 15 -25 12 -25 -4 0 -8 10 -16 23 -18
27 -4 30 -36 5 -52 -20 -12 -49 0 -56 25 -4 11 -2 12 9 2 14 -14 49 -18 49 -5
0 4 -13 13 -30 20 -16 8 -30 20 -30 27 0 22 43 32 69 16z m101 -2 c12 -8 9 -9
-12 -5 -38 9 -46 -12 -9 -25 34 -12 39 -30 16 -49 -18 -15 -65 1 -65 22 0 9 3
9 12 0 13 -13 48 -16 48 -4 0 4 -13 13 -30 20 -16 8 -30 20 -30 27 0 23 44 32
70 14z m250 -56 c-1 -51 -3 -64 -11 -50 -5 9 -15 17 -21 17 -20 0 -48 32 -48
55 0 29 19 45 52 45 28 0 28 0 28 -67z m110 57 c0 -5 -4 -10 -10 -10 -5 0 -10
5 -10 10 0 6 5 10 10 10 6 0 10 -4 10 -10z m270 -30 c0 -16 5 -32 12 -36 15
-9 38 23 38 54 0 13 4 20 10 17 6 -3 10 -22 10 -41 0 -28 -5 -36 -26 -44 -32
-13 -30 -13 -48 6 -17 17 -23 89 -6 79 6 -3 10 -19 10 -35z m107 -37 c-2 -16
-4 -3 -4 27 0 30 2 43 4 28 2 -16 2 -40 0 -55z"/>
<path d="M2592 2823 c3 -201 4 -208 23 -206 18 2 18 1 -2 -9 -23 -11 -23 -13
-23 -238 0 -149 -4 -230 -11 -237 -8 -8 -8 -13 0 -17 8 -5 11 -93 11 -277 l0
-269 253 0 c140 0 328 3 420 7 157 6 165 7 154 25 -9 13 -24 18 -59 18 -27 0
-48 -4 -48 -10 0 -18 -29 -10 -41 11 -14 27 -5 35 51 45 89 15 181 0 165 -26
-3 -5 -1 -11 4 -15 18 -10 -1 -35 -28 -37 -79 -4 176 -16 371 -17 l227 -1 3
298 c2 163 1 491 -2 727 l-5 430 -733 3 -732 2 2 -207z m1166 -10 c-10 -2 -28
-2 -40 0 -13 2 -5 4 17 4 22 1 32 -1 23 -4z m-780 -60 c-10 -2 -26 -2 -35 0
-10 3 -2 5 17 5 19 0 27 -2 18 -5z m89 -9 c-3 -3 -12 -4 -19 -1 -8 3 -5 6 6 6
11 1 17 -2 13 -5z m302 -33 c9 -6 -1 -10 -33 -12 -52 -5 -69 -1 -60 12 7 11
75 12 93 0z m656 -1 c4 -6 -9 -10 -32 -10 -28 0 -34 3 -23 10 20 13 47 13 55
0z m-598 -152 c-3 -8 -6 -5 -6 6 -1 11 2 17 5 13 3 -3 4 -12 1 -19z m540 -20
c-3 -8 -6 -5 -6 6 -1 11 2 17 5 13 3 -3 4 -12 1 -19z m-1316 -82 c5 -6 9 -15
9 -20 0 -6 -7 -2 -15 8 -8 11 -14 31 -14 45 l2 26 4 -25 c3 -14 9 -29 14 -34z
m623 -8 c-5 -7 -9 -19 -10 -26 -2 -12 -43 -51 -56 -52 -14 0 6 42 34 72 27 29
49 34 32 6z m17 -82 c17 10 49 -7 49 -27 0 -25 -24 -24 -60 3 -22 16 -26 24
-18 30 7 4 15 3 16 -2 2 -6 8 -8 13 -4z m418 -42 c2 -2 2 -7 -2 -10 -9 -10
-88 7 -81 17 5 8 72 2 83 -7z m-288 -228 c26 -32 -1 -42 -43 -16 -23 14 -27
20 -15 20 10 0 16 4 13 8 -11 19 30 7 45 -12z m-121 -6 c8 -5 11 -10 5 -10 -5
0 -17 5 -25 10 -8 5 -10 10 -5 10 6 0 17 -5 25 -10z"/>
<path d="M1760 2375 l0 -65 44 0 c71 0 76 4 76 71 l0 59 -60 0 -60 0 0 -65z"/>
<path d="M1457 2313 c-4 -3 -7 -11 -7 -17 0 -6 5 -5 12 2 6 6 9 14 7 17 -3 3
-9 2 -12 -2z"/>
<path d="M1490 2251 l0 -51 39 0 c43 0 50 10 47 65 -1 28 -4 30 -43 33 l-43 3
0 -50z"/>
<path d="M1430 2250 c0 -5 7 -10 15 -10 8 0 15 5 15 10 0 6 -7 10 -15 10 -8 0
-15 -4 -15 -10z"/>
<path d="M160 416 c0 -22 4 -26 31 -26 26 0 30 3 27 23 -2 16 -11 23 -30 25
-24 3 -28 0 -28 -22z"/>
<path d="M1116 418 c-19 -27 -20 -48 -3 -71 10 -15 16 -16 39 -5 22 10 28 20
28 44 0 53 -37 71 -64 32z"/>
<path d="M805 386 c-16 -12 -18 -18 -9 -33 14 -22 48 -24 52 -3 1 9 -3 23 -10
33 -12 16 -15 16 -33 3z"/>
<path d="M2878 4333 c7 -3 16 -2 19 1 4 3 -2 6 -13 5 -11 0 -14 -3 -6 -6z"/>
<path d="M2994 4249 c-4 -7 -3 -9 4 -5 5 3 13 0 15 -6 4 -9 6 -10 6 -1 1 17
-16 25 -25 12z"/>
<path d="M2965 4240 c3 -5 8 -10 11 -10 2 0 4 5 4 10 0 6 -5 10 -11 10 -5 0
-7 -4 -4 -10z"/>
<path d="M5366 3495 c4 -8 8 -15 11 -15 2 0 11 7 19 15 14 13 13 15 -10 15
-18 0 -24 -4 -20 -15z"/>
<path d="M5451 3503 c11 -3 14 -13 11 -36 -6 -41 3 -33 11 11 6 28 4 32 -16
31 -14 -1 -16 -3 -6 -6z"/>
<path d="M5652 3487 c2 -15 7 -28 13 -28 16 -1 16 16 0 36 -15 19 -15 19 -13
-8z"/>
<path d="M5580 3476 c0 -22 3 -27 11 -19 8 8 8 16 0 30 -9 16 -10 14 -11 -11z"/>
<path d="M5720 3475 c-16 -17 -19 -25 -9 -25 8 0 25 12 38 25 16 17 19 25 9
25 -8 0 -25 -11 -38 -25z"/>
<path d="M5850 3493 c0 -5 7 -17 15 -27 8 -11 15 -29 15 -41 0 -15 7 -21 26
-23 14 -1 23 2 20 7 -3 5 1 14 9 21 23 19 19 57 -7 64 -32 8 -78 7 -78 -1z"/>
<path d="M5408 3483 c7 -3 16 -2 19 1 4 3 -2 6 -13 5 -11 0 -14 -3 -6 -6z"/>
<path d="M5432 3420 c0 -14 2 -19 5 -12 2 6 2 18 0 25 -3 6 -5 1 -5 -13z"/>
<path d="M5291 3394 c0 -11 3 -14 6 -6 3 7 2 16 -1 19 -3 4 -6 -2 -5 -13z"/>
<path d="M5610 3313 c0 -10 3 -41 6 -69 l7 -52 66 2 c60 1 66 3 63 21 -2 11
-7 40 -10 65 l-7 45 -62 3 c-55 3 -63 1 -63 -15z"/>
<path d="M5416 3311 c-3 -5 1 -14 10 -21 11 -10 18 -10 27 -1 9 9 9 14 -3 21
-19 12 -27 12 -34 1z"/>
<path d="M5920 3301 c0 -5 7 -14 15 -21 13 -10 15 -9 15 9 0 12 -6 21 -15 21
-8 0 -15 -4 -15 -9z"/>
<path d="M5438 3232 c-32 -4 -38 -22 -9 -22 15 0 21 -8 23 -32 2 -28 8 -34 31
-36 28 -3 28 -3 25 44 -3 51 -7 53 -70 46z"/>
<path d="M5901 3192 c-6 -12 -11 -34 -11 -47 0 -14 -4 -25 -9 -25 -28 0 -6
-133 29 -175 6 -7 16 -30 24 -51 14 -36 15 -27 15 143 1 174 0 182 -18 180
-11 -1 -24 -12 -30 -25z m29 -190 c0 -21 -2 -24 -10 -12 -13 20 -13 53 0 45 6
-3 10 -18 10 -33z"/>
<path d="M5646 3023 c10 -104 5 -98 76 -97 l63 1 3 39 c2 21 -1 56 -8 77 l-11
37 -64 0 -65 0 6 -57z"/>
<path d="M5462 3032 c-13 -2 -21 -9 -19 -15 5 -16 42 -21 63 -9 16 9 16 10 -2
19 -10 5 -29 7 -42 5z"/>
<path d="M5592 2730 c0 -14 2 -19 5 -12 2 6 2 18 0 25 -3 6 -5 1 -5 -13z"/>
<path d="M5601 2658 c0 -7 4 -22 9 -33 7 -17 9 -15 9 13 1 17 -3 32 -9 32 -5
0 -10 -6 -9 -12z"/>
</g>
</svg>
