<?xml version="1.0" standalone="no"?>
<!DOCTYPE svg PUBLIC "-//W3C//DTD SVG 20010904//EN"
 "http://www.w3.org/TR/2001/REC-SVG-20010904/DTD/svg10.dtd">
<svg version="1.0" xmlns="http://www.w3.org/2000/svg"
 width="599.000000pt" height="429.000000pt" viewBox="0 0 599.000000 429.000000"
 preserveAspectRatio="xMidYMid meet">

<g transform="translate(0.000000,429.000000) scale(0.100000,-0.100000)"
fill="#000000" stroke="none">
<path d="M0 2145 l0 -2145 2995 0 2995 0 0 771 c0 671 -2 772 -15 785 -19 20
-19 54 0 54 14 0 15 47 15 390 -1 214 -5 392 -9 394 -4 3 -13 -6 -19 -19 -11
-24 -12 -24 -41 -7 -37 21 -51 50 -52 110 0 37 -2 43 -10 27 -6 -13 -7 2 -3
48 l6 68 -79 -3 -78 -3 3 -43 c2 -37 -1 -44 -22 -52 -38 -14 -39 -27 -1 -49
19 -11 35 -24 35 -28 0 -57 11 -218 16 -238 3 -14 2 -25 -2 -25 -14 0 -56 106
-62 155 -3 34 -8 43 -17 35 -15 -12 -45 47 -45 89 0 18 -8 35 -22 45 -16 12
-19 18 -10 22 19 9 14 22 -10 26 -16 2 -32 19 -50 53 -14 27 -25 52 -23 55 2
4 17 5 33 2 39 -5 54 16 46 65 -6 40 -6 40 -55 42 -37 1 -49 -2 -49 -13 0 -8
5 -16 12 -18 8 -3 8 -9 1 -23 -10 -17 -13 -15 -35 21 -68 107 -88 156 -88 215
0 82 -5 89 -55 89 -28 0 -45 5 -48 14 -12 30 -165 256 -265 391 -58 77 -109
150 -115 163 -9 20 -4 29 44 78 239 245 395 380 606 521 l125 83 -1220 0
c-1123 0 -1220 -1 -1226 -16 -6 -14 -9 -289 -4 -334 4 -43 -2 -50 -39 -49 -40
1 -99 16 -73 18 8 1 22 7 31 14 15 11 15 15 2 32 -14 20 -15 20 -28 1 -8 -10
-21 -16 -29 -13 -8 3 -16 1 -19 -6 -2 -8 -9 -6 -21 6 -10 9 -22 15 -26 12 -5
-3 -7 4 -5 15 5 25 1 25 -24 -1 -22 -24 -45 -17 -38 11 4 15 -3 20 -35 25 -30
5 -38 11 -34 22 4 10 1 14 -6 11 -7 -2 -24 6 -38 19 l-24 24 22 6 c12 3 19 9
17 13 -3 5 3 24 14 43 l19 34 -29 17 c-16 9 -31 17 -34 16 -12 -1 -5 16 10 25
12 8 20 5 30 -9 8 -11 18 -17 21 -13 4 4 1 13 -6 22 -9 11 -10 18 -1 29 9 10
8 15 -3 19 -8 3 -178 6 -377 7 -330 0 -360 -1 -345 -15 20 -21 21 -39 1 -31
-8 3 -15 0 -15 -7 0 -7 -7 -21 -15 -31 -21 -28 -42 -7 -23 23 10 16 10 25 2
39 -11 16 -74 17 -1048 20 l-1036 2 0 -2145z m171 2101 c-9 -11 -8 -15 6 -20
15 -6 15 -8 0 -23 -13 -13 -21 -14 -41 -5 -41 18 -21 56 33 61 10 1 11 -2 2
-13z m1189 -26 c0 -5 -4 -10 -10 -10 -5 0 -10 5 -10 10 0 6 5 10 10 10 6 0 10
-4 10 -10z m850 -41 c0 -15 -19 -19 -59 -13 -46 7 -53 20 -17 34 13 5 27 14
32 21 5 9 12 6 26 -10 10 -13 18 -27 18 -32z m350 41 c0 -5 -9 -10 -21 -10
-11 0 -17 5 -14 10 3 6 13 10 21 10 8 0 14 -4 14 -10z m128 -30 c10 -17 10
-20 -6 -20 -11 0 -18 7 -18 20 0 11 3 20 6 20 3 0 11 -9 18 -20z m-490 -52 c6
-20 1 -38 -12 -38 -8 0 -16 -5 -18 -11 -6 -18 -38 2 -39 25 -1 16 -2 17 -6 4
-4 -16 -33 -27 -33 -13 0 24 26 40 63 40 23 0 43 -3 45 -7z m168 -47 c-11 -17
-25 -13 -21 7 2 9 4 19 4 22 1 2 6 -1 12 -7 6 -6 8 -16 5 -22z m44 19 c0 -5
-4 -10 -10 -10 -5 0 -10 5 -10 10 0 6 5 10 10 10 6 0 10 -4 10 -10z m348 -2
c-3 -7 -20 -14 -39 -16 -32 -3 -33 -3 -14 12 24 19 58 21 53 4z m-2598 -28 c0
-11 -5 -20 -11 -20 -8 0 -8 -5 1 -15 13 -15 6 -65 -9 -65 -22 0 -31 27 -20 61
6 19 12 40 15 47 6 20 24 14 24 -8z m2108 -2 c-3 -7 -13 -15 -23 -16 -15 -4
-16 -2 -4 12 17 19 32 21 27 4z m367 -18 c3 -5 2 -10 -4 -10 -5 0 -13 5 -16
10 -3 6 -2 10 4 10 5 0 13 -4 16 -10z m-463 -12 c-9 -9 -15 -9 -24 0 -9 9 -7
12 12 12 19 0 21 -3 12 -12z m-1734 -10 c8 -8 9 -15 1 -25 -21 -25 -49 -9 -49
28 0 13 34 11 48 -3z m1699 -7 c14 -14 24 -16 31 -9 21 21 30 -2 13 -36 -12
-27 -21 -34 -35 -29 -10 3 -22 -1 -27 -8 -6 -10 -9 -8 -9 9 0 12 5 22 10 22 6
0 10 9 10 20 0 13 -7 20 -20 20 -20 0 -26 11 -13 23 10 11 18 8 40 -12z m93 9
c0 -5 -2 -10 -4 -10 -3 0 -8 5 -11 10 -3 6 -1 10 4 10 6 0 11 -4 11 -10z
m-720 -10 c0 -5 -4 -10 -10 -10 -5 0 -10 5 -10 10 0 6 5 10 10 10 6 0 10 -4
10 -10z m-1401 -49 c16 -10 6 -31 -15 -31 -8 0 -14 2 -14 4 0 2 -3 11 -6 20
-7 18 12 21 35 7z m2454 -16 c1 -5 -6 -11 -15 -13 -11 -2 -18 3 -18 13 0 17
30 18 33 0z m117 6 c0 -6 -4 -13 -10 -16 -5 -3 -10 1 -10 9 0 9 5 16 10 16 6
0 10 -4 10 -9z m-1018 -16 c0 -5 -5 -11 -11 -13 -6 -2 -11 4 -11 13 0 9 5 15
11 13 6 -2 11 -8 11 -13z m1088 11 c0 -11 -19 -15 -25 -6 -3 5 1 10 9 10 9 0
16 -2 16 -4z m144 -22 c9 -23 7 -34 -4 -34 -5 0 -10 7 -10 15 0 8 -7 15 -16
15 -8 0 -12 5 -9 10 9 15 32 12 39 -6z m-217 -31 c4 -12 -33 -24 -53 -16 -7 3
-13 15 -12 28 2 22 4 23 32 11 16 -6 31 -17 33 -23z m-2407 5 c0 -16 -3 -19
-11 -11 -6 6 -8 16 -5 22 11 17 16 13 16 -11z m2710 2 c0 -13 -26 -19 -41 -9
-12 8 -12 10 0 18 15 10 41 4 41 -9z m-880 -40 c0 -5 -4 -10 -10 -10 -5 0 -10
5 -10 10 0 6 5 10 10 10 6 0 10 -4 10 -10z m-640 -20 c0 -5 -4 -10 -10 -10 -5
0 -10 5 -10 10 0 6 5 10 10 10 6 0 10 -4 10 -10z m-1200 -320 c0 -5 -5 -10
-11 -10 -5 0 -7 5 -4 10 3 6 8 10 11 10 2 0 4 -4 4 -10z m2909 -151 c-8 -4
-27 -5 -44 -1 -30 6 -30 6 -5 12 32 8 68 0 49 -11z m51 7 c0 -16 -18 -31 -27
-22 -8 8 5 36 17 36 5 0 10 -6 10 -14z m-177 -3 c-7 -2 -19 -2 -25 0 -7 3 -2
5 12 5 14 0 19 -2 13 -5z m-63 -12 c0 -12 -28 -22 -34 -12 -3 5 -3 11 1 15 9
9 33 7 33 -3z m908 -127 c75 -47 124 -142 104 -202 -12 -37 -38 -39 -70 -4
-15 16 -38 32 -52 35 -31 8 -136 98 -169 143 -21 29 -22 36 -10 50 22 27 137
14 197 -22z m-2928 -64 c0 -5 -9 -10 -20 -10 -11 0 -20 5 -20 10 0 6 9 10 20
10 11 0 20 -4 20 -10z m1589 -1 c9 4 40 9 69 10 l54 3 -24 -32 c-12 -18 -38
-38 -57 -46 -36 -15 -52 -18 -36 -6 10 7 35 48 35 57 0 3 -5 5 -11 5 -5 0 -8
-4 -5 -9 3 -4 -12 -15 -34 -24 -38 -15 -40 -15 -40 4 0 10 5 19 11 19 6 0 8 7
4 18 -5 13 -4 14 6 5 7 -7 19 -9 28 -4z m-169 -40 c0 -11 -4 -18 -9 -15 -5 3
-18 -8 -29 -25 -12 -19 -22 -27 -26 -20 -11 18 4 53 20 47 8 -3 20 3 26 14 16
25 18 25 18 -1z m-291 -33 c10 -12 8 -19 -9 -36 -26 -26 -56 -23 -52 5 8 42
39 58 61 31z m2345 -78 c0 -18 -4 -45 -8 -60 -6 -22 -5 -28 7 -28 9 0 20 7 25
16 8 14 13 10 31 -19 26 -43 26 -45 -3 -109 -14 -29 -26 -62 -28 -73 -4 -24
-25 -26 -57 -6 -14 9 -32 16 -40 16 -9 0 -17 10 -19 23 -2 12 -6 22 -10 22
-28 -1 -52 -16 -62 -40 -7 -16 -19 -31 -27 -34 -14 -6 -43 15 -43 31 0 15 120
214 163 271 36 47 42 51 55 38 9 -8 16 -30 16 -48z m-2728 17 c18 -14 18 -15
-4 -12 -27 4 -54 27 -31 27 8 0 24 -7 35 -15z m-79 -10 c0 -8 -4 -12 -9 -9 -5
3 -6 10 -3 15 9 13 12 11 12 -6z m878 -5 c-3 -5 -23 -9 -43 -9 l-37 2 35 7
c52 11 52 11 45 0z m-137 -17 c-16 -2 -40 -2 -55 0 -16 2 -3 4 27 4 30 0 43
-2 28 -4z m-243 -13 c-28 -12 -83 -12 -90 0 -4 6 16 10 52 9 42 0 52 -3 38 -9z
m-492 -41 c-27 -11 -63 -10 -63 1 0 6 11 10 25 10 14 0 25 5 25 11 0 8 5 7 16
-2 14 -12 14 -14 -3 -20z m335 24 c-10 -2 -26 -2 -35 0 -10 3 -2 5 17 5 19 0
27 -2 18 -5z m-180 -10 c-10 -2 -28 -2 -40 0 -13 2 -5 4 17 4 22 1 32 -1 23
-4z m3562 -58 c0 -5 -5 -3 -10 5 -5 8 -10 20 -10 25 0 6 5 3 10 -5 5 -8 10
-19 10 -25z m-2923 -1 c-7 -7 -128 -7 -135 1 -3 3 28 5 68 5 40 0 71 -3 67 -6z
m-440 -20 c-3 -3 -12 -4 -19 -1 -8 3 -5 6 6 6 11 1 17 -2 13 -5z m1205 -44
c444 0 759 -4 762 -9 12 -18 7 -1494 -4 -1505 -11 -11 -1505 -14 -1516 -3 -3
3 -6 329 -7 725 -2 575 -5 722 -15 735 -10 12 -11 21 -2 37 9 16 8 25 -1 36
-11 13 -14 13 -21 1 -4 -9 -16 -13 -27 -10 -10 3 -28 0 -40 -6 -29 -16 -151
-25 -151 -11 0 5 7 10 15 10 8 0 15 5 15 10 0 7 15 9 38 5 27 -4 32 -3 17 4
-19 9 -18 10 5 11 14 1 34 3 45 5 11 2 23 -1 26 -7 4 -7 14 -8 25 -3 11 5 22
7 27 7 4 -1 7 4 7 11 1 6 11 0 23 -15 l23 -28 756 0z m-1325 34 c-3 -3 -12 -4
-19 -1 -8 3 -5 6 6 6 11 1 17 -2 13 -5z m293 -38 c0 -2 -7 -7 -16 -10 -8 -3
-12 -2 -9 4 6 10 25 14 25 6z m2408 -53 c17 -36 22 -66 22 -120 0 -66 -2 -73
-20 -73 -15 0 -20 7 -20 25 0 20 -5 25 -25 25 -20 0 -25 5 -25 24 0 14 -4 28
-10 31 -13 8 -13 51 1 78 14 26 40 57 48 57 4 0 16 -21 29 -47z m991 -85 c0
-28 -2 -30 -9 -13 -12 28 -12 45 0 45 6 0 10 -15 9 -32z m-1407 -78 c-2 -16
-8 -30 -13 -30 -14 0 -11 48 4 53 6 3 12 6 13 6 0 1 -1 -12 -4 -29z m466 -103
c6 -6 14 -25 17 -40 7 -27 -11 -59 -65 -118 -8 -9 -24 -29 -34 -44 l-19 -28
-18 24 c-18 23 -31 44 -66 111 -16 31 -16 32 10 54 15 13 44 26 65 29 20 4 48
10 62 15 35 12 36 12 48 -3z m1185 -103 c-1 -18 -1 -18 13 0 8 11 14 14 14 7
0 -7 4 -10 9 -7 4 3 8 -8 7 -25 -1 -25 -4 -29 -23 -24 -12 3 -23 2 -26 -3 -2
-4 -2 -2 -1 5 2 6 -1 26 -6 43 -7 23 -6 30 3 27 7 -2 11 -13 10 -23z m44 -144
c-18 -16 -34 -24 -36 -18 -4 12 50 58 61 52 4 -3 -7 -18 -25 -34z m-3497 -20
c0 -33 -3 -40 -20 -40 -10 0 -24 9 -30 21 -9 16 -8 25 6 40 28 31 44 24 44
-21z m-371 -138 l18 -92 -58 0 c-51 0 -61 -4 -87 -30 -17 -16 -38 -30 -46 -30
-13 0 -16 -13 -16 -70 0 -38 -4 -70 -9 -70 -5 0 -16 -6 -23 -13 -29 -28 -69
-47 -97 -47 -35 0 -51 -19 -27 -32 24 -13 20 -30 -6 -26 -19 2 -23 9 -23 38 0
34 -1 35 -42 38 -39 3 -43 1 -43 -20 -1 -36 -34 -68 -69 -68 -31 0 -39 13 -22
39 5 7 13 11 19 7 30 -18 80 49 92 123 7 42 5 46 -32 84 -34 35 -43 39 -73 34
-35 -6 -55 6 -34 19 8 5 8 8 -1 14 -6 4 -13 27 -14 52 -2 25 -7 51 -10 57 -4
6 0 21 9 34 8 13 12 27 8 30 -3 4 5 7 20 7 14 0 29 -5 33 -12 4 -6 3 -8 -4 -4
-13 8 -27 -13 -16 -24 5 -4 21 -10 37 -14 20 -5 27 -3 27 9 0 8 5 15 10 15 6
0 10 11 10 25 0 14 3 25 6 25 4 0 52 7 108 15 55 8 142 19 191 23 89 8 90 8
118 -18 23 -22 32 -44 46 -118z m3961 138 c0 -5 -4 -10 -10 -10 -5 0 -10 5
-10 10 0 6 5 10 10 10 6 0 10 -4 10 -10z m-5654 -51 c-3 -17 -6 -41 -7 -53 -1
-19 -2 -18 -9 4 -14 45 -12 80 6 80 13 0 15 -7 10 -31z m1767 -40 l-7 -34 -6
30 c-7 35 -1 60 11 48 5 -5 6 -25 2 -44z m3903 6 c-4 -14 -1 -33 5 -44 13 -20
5 -56 -10 -47 -14 9 -21 64 -11 91 12 32 24 32 16 0z m-5351 -90 c-23 -41 -41
-45 -38 -8 3 34 33 67 47 53 8 -8 5 -21 -9 -45z m1465 0 c0 -13 -4 -27 -10
-30 -6 -4 -10 8 -10 30 0 22 4 34 10 30 6 -3 10 -17 10 -30z m-1440 -176 c-60
-15 -64 -13 -39 29 12 20 29 45 38 56 15 17 16 15 21 -30 5 -46 3 -49 -20 -55z
m-53 -126 c9 -13 11 -23 6 -23 -18 0 -33 25 -32 55 1 20 3 24 6 10 3 -10 12
-29 20 -42z m80 15 c-3 -7 -5 -2 -5 12 0 14 2 19 5 13 2 -7 2 -19 0 -25z
m1140 -13 c-4 -8 -14 -15 -23 -15 -16 0 -16 2 1 20 20 22 31 20 22 -5z m-1220
-57 c-3 -8 -6 -5 -6 6 -1 11 2 17 5 13 3 -3 4 -12 1 -19z m4261 -284 c14 -4
22 -13 21 -28 -1 -16 -2 -17 -6 -4 -2 9 -16 21 -31 27 -30 11 -19 14 16 5z
m-4593 -1206 c48 -21 24 -78 -34 -78 -14 0 -21 -8 -24 -27 -2 -16 -5 2 -6 38
-1 84 7 93 64 67z m962 -10 c24 -22 27 -43 17 -97 -5 -25 -11 -31 -33 -31 -32
0 -44 8 -60 37 -17 34 -13 62 14 88 30 30 33 31 62 3z m173 6 c0 -8 -5 -12
-10 -9 -6 4 -8 11 -5 16 9 14 15 11 15 -7z m-603 -26 c-3 -7 -5 -2 -5 12 0 14
2 19 5 13 2 -7 2 -19 0 -25z m173 0 c0 -5 -4 -8 -10 -8 -5 0 -10 10 -10 23 0
18 2 19 10 7 5 -8 10 -18 10 -22z m491 15 c6 -84 3 -121 -8 -110 -18 19 -21
127 -3 127 6 0 11 -8 11 -17z m-1109 -38 c-14 -11 -22 -26 -22 -46 0 -18 -4
-28 -10 -24 -10 6 -14 67 -6 76 3 3 17 6 33 7 l28 2 -23 -15z m106 3 c19 -19
14 -26 -15 -30 -17 -2 -28 -9 -28 -18 0 -10 8 -14 23 -13 12 2 22 -2 22 -7 0
-10 -14 -14 -40 -10 -46 6 -37 90 10 90 9 0 21 -5 28 -12z m97 4 c6 -4 10 -22
10 -41 0 -37 -22 -58 -49 -48 -25 10 -19 25 9 19 30 -5 34 14 5 23 -26 8 -45
41 -27 48 18 8 41 8 52 -1z m99 2 c9 -3 16 -10 16 -15 0 -5 -9 -4 -20 3 -25
16 -40 0 -16 -17 10 -8 24 -16 30 -18 8 -3 8 -9 0 -23 -15 -25 -35 -28 -59 -9
-19 14 -18 14 11 9 38 -7 56 13 20 22 -35 9 -54 33 -35 45 17 10 31 11 53 3z
m255 -61 c-1 -38 -3 -60 -6 -50 -2 9 -11 17 -19 17 -26 0 -56 39 -48 63 8 27
22 37 52 37 21 0 22 -4 21 -67z m111 58 c0 -6 -4 -13 -10 -16 -5 -3 -10 1 -10
9 0 9 5 16 10 16 6 0 10 -4 10 -9z m340 -37 c0 -28 -5 -36 -26 -45 -21 -7 -31
-6 -45 7 -20 18 -26 74 -9 74 6 0 10 -13 10 -29 0 -17 5 -33 10 -36 18 -11 40
16 40 47 0 17 4 27 10 23 6 -3 10 -22 10 -41z m46 2 c2 -20 -1 -38 -7 -41 -5
-4 -9 14 -9 41 0 53 11 53 16 0z"/>
<path d="M2145 4120 c-3 -5 -1 -10 4 -10 6 0 11 5 11 10 0 6 -2 10 -4 10 -3 0
-8 -4 -11 -10z"/>
<path d="M2457 2823 c-9 -8 -9 -1381 0 -1424 l6 -31 404 3 c344 4 405 6 413
19 7 12 12 12 22 2 6 -6 34 -12 61 -12 40 0 53 4 69 25 16 20 23 23 38 15 11
-6 17 -16 14 -24 -6 -16 113 -26 313 -26 l133 0 0 575 0 575 -25 0 c-14 0 -25
5 -25 10 0 6 11 10 25 10 l25 0 0 145 0 145 -733 0 c-404 0 -737 -3 -740 -7z
m1186 -210 c-7 -2 -21 -2 -30 0 -10 3 -4 5 12 5 17 0 24 -2 18 -5z m-675 -110
c-10 -2 -26 -2 -35 0 -10 3 -2 5 17 5 19 0 27 -2 18 -5z m317 -24 c5 -5 -8 -9
-33 -9 -23 0 -42 4 -42 9 0 21 52 21 75 0z m-710 -128 c-16 -14 -55 -23 -55
-12 0 5 12 12 28 14 15 2 29 5 32 6 2 0 0 -3 -5 -8z m532 -73 c-3 -8 -6 -5 -6
6 -1 11 2 17 5 13 3 -3 4 -12 1 -19z m90 -90 c-23 -36 -37 -15 -16 24 8 16 13
18 19 8 5 -7 3 -21 -3 -32z m71 -70 c20 -20 14 -38 -12 -38 -30 0 -42 16 -26
35 15 18 22 19 38 3z m97 -382 c0 -13 -10 -22 -27 -27 -35 -9 -46 6 -22 32 22
24 49 21 49 -5z m-87 -19 c3 -13 -4 -17 -27 -17 -34 0 -40 14 -13 29 22 13 36
9 40 -12z"/>
<path d="M1823 2243 l-33 -4 0 -59 c0 -32 4 -61 9 -64 5 -3 30 -3 55 0 l47 7
-3 61 c-3 67 -5 68 -75 59z"/>
<path d="M1485 2110 c-3 -5 1 -10 10 -10 9 0 13 5 10 10 -3 6 -8 10 -10 10 -2
0 -7 -4 -10 -10z"/>
<path d="M1520 2050 l0 -50 40 0 40 0 0 50 0 50 -40 0 -40 0 0 -50z"/>
<path d="M1481 2054 c0 -11 3 -14 6 -6 3 7 2 16 -1 19 -3 4 -6 -2 -5 -13z"/>
<path d="M1597 1933 c-32 -4 -36 -7 -26 -19 20 -24 198 -12 207 14 4 12 -86
15 -181 5z"/>
<path d="M197 233 c-4 -3 -7 -15 -7 -25 0 -13 8 -18 29 -18 35 0 48 15 31 35
-13 16 -42 20 -53 8z"/>
<path d="M1156 224 c-18 -18 -21 -65 -5 -81 20 -20 59 8 59 42 0 29 -15 55
-31 55 -4 0 -15 -7 -23 -16z"/>
<path d="M507 194 c-8 -8 1 -24 14 -24 5 0 9 7 9 15 0 15 -12 20 -23 9z"/>
<path d="M841 186 c-17 -20 -4 -58 17 -54 22 4 27 41 9 56 -11 10 -17 9 -26
-2z"/>
<path d="M2960 4011 c0 -5 5 -13 10 -16 6 -3 10 -2 10 4 0 5 -4 13 -10 16 -5
3 -10 2 -10 -4z"/>
<path d="M3010 3972 c0 -5 7 -9 15 -9 8 0 15 4 15 9 0 4 -7 8 -15 8 -8 0 -15
-4 -15 -8z"/>
<path d="M5130 3299 c14 -6 57 -11 97 -12 l72 -2 9 -35 10 -35 -1 36 c0 20 3
41 7 47 5 9 -23 12 -106 11 -85 0 -107 -3 -88 -10z"/>
<path d="M5353 3303 c9 -2 23 -2 30 0 6 3 -1 5 -18 5 -16 0 -22 -2 -12 -5z"/>
<path d="M5400 3306 c0 -2 11 -6 25 -8 14 -3 25 -1 25 3 0 5 -11 9 -25 9 -14
0 -25 -2 -25 -4z"/>
<path d="M5476 3298 c4 -7 11 -28 15 -48 l7 -35 1 32 c1 37 -7 63 -21 63 -5 0
-6 -5 -2 -12z"/>
<path d="M5684 3287 c-8 -21 -3 -29 13 -19 8 5 9 13 3 22 -7 12 -10 12 -16 -3z"/>
<path d="M5898 3265 c16 -35 52 -49 52 -21 0 9 7 12 20 9 15 -4 20 0 20 16 0
16 -6 21 -27 22 -16 0 -40 3 -54 5 l-27 4 16 -35z"/>
<path d="M5746 3271 c-4 -7 -5 -15 -2 -18 9 -9 19 4 14 18 -4 11 -6 11 -12 0z"/>
<path d="M5210 3248 c0 -16 15 -40 24 -39 20 3 26 0 21 -10 -4 -6 -14 -8 -22
-5 -9 4 -13 1 -11 -6 3 -7 13 -13 24 -13 14 0 20 8 22 34 4 35 -9 51 -40 51
-10 0 -18 -6 -18 -12z"/>
<path d="M5450 3225 c0 -8 4 -15 10 -15 5 0 7 7 4 15 -4 8 -8 15 -10 15 -2 0
-4 -7 -4 -15z"/>
<path d="M5643 3068 c3 -32 7 -62 10 -64 9 -10 116 -14 121 -5 3 4 1 36 -5 70
l-11 61 -60 -1 -60 -2 5 -59z m47 -12 c0 -3 -4 -8 -10 -11 -5 -3 -10 -1 -10 4
0 6 5 11 10 11 6 0 10 -2 10 -4z"/>
<path d="M5440 3111 c0 -12 29 -23 41 -15 18 10 9 24 -16 24 -14 0 -25 -4 -25
-9z"/>
<path d="M5960 3100 c0 -5 7 -10 15 -10 8 0 15 5 15 10 0 6 -7 10 -15 10 -8 0
-15 -4 -15 -10z"/>
<path d="M5478 3032 c-39 -3 -54 -22 -18 -22 19 0 22 -4 24 -44 1 -13 10 -20
29 -23 25 -3 27 -1 27 35 0 47 -13 58 -62 54z"/>
<path d="M5940 3000 c-6 -10 -9 -23 -8 -27 3 -13 -13 -53 -22 -53 -4 0 -10
-11 -12 -25 -6 -29 19 -105 61 -190 l31 -60 0 181 c0 157 -2 183 -16 188 -22
8 -22 8 -34 -14z m26 -187 c4 -13 4 -27 0 -30 -9 -10 -24 8 -31 40 -6 22 -4
26 9 21 9 -3 19 -17 22 -31z"/>
<path d="M5674 2834 c3 -26 6 -60 6 -77 0 -26 3 -29 26 -24 14 2 41 1 60 -3
45 -10 58 6 50 62 -12 90 -6 83 -81 86 l-68 3 7 -47z"/>
<path d="M5487 2833 c-14 -4 -16 -8 -6 -19 13 -16 28 -18 49 -4 13 9 13 11 0
20 -8 5 -17 9 -20 9 -3 -1 -13 -3 -23 -6z"/>
<path d="M5637 2428 c8 -46 13 -48 13 -5 0 21 -4 37 -10 37 -5 0 -7 -14 -3
-32z"/>
</g>
</svg>
