<?xml version="1.0" standalone="no"?>
<!DOCTYPE svg PUBLIC "-//W3C//DTD SVG 20010904//EN"
 "http://www.w3.org/TR/2001/REC-SVG-20010904/DTD/svg10.dtd">
<svg version="1.0" xmlns="http://www.w3.org/2000/svg"
 width="552.000000pt" height="411.000000pt" viewBox="0 0 552.000000 411.000000"
 preserveAspectRatio="xMidYMid meet">

<g transform="translate(0.000000,411.000000) scale(0.100000,-0.100000)"
fill="#000000" stroke="none">
<path d="M20 2064 l0 -2045 2744 2 2743 2 7 201 c10 294 5 1242 -6 1285 -6 20
-11 51 -12 69 0 18 -6 36 -12 40 -23 16 -24 42 -1 51 l22 9 -2 328 c-1 181 -2
341 -4 357 -2 31 -24 37 -32 8 -4 -15 -11 -18 -28 -14 -46 11 -46 11 -73 168
l-12 70 -57 -1 c-32 -1 -61 -4 -64 -8 -4 -4 -6 -22 -5 -40 2 -26 -2 -35 -23
-44 -32 -15 -32 -30 0 -38 37 -9 45 -32 45 -126 0 -46 4 -97 9 -115 5 -17 7
-34 3 -37 -8 -8 -61 114 -62 141 0 35 -11 57 -21 42 -10 -16 -28 27 -36 84 -4
24 -11 37 -20 37 -11 0 -14 7 -10 21 4 15 0 23 -11 26 -17 4 -62 72 -62 92 0
5 17 11 37 13 43 3 50 19 32 64 l-12 29 -7 -25 c-8 -24 -8 -24 -9 -2 -1 18 -7
22 -31 22 -27 0 -29 -2 -23 -30 10 -53 -12 -32 -62 56 -42 75 -48 94 -46 136
3 75 -4 88 -48 88 -41 0 -50 9 -110 110 -36 61 -32 55 -184 262 -76 103 -107
153 -103 166 6 18 211 225 301 304 82 70 214 172 304 232 l84 56 -1105 0
c-999 0 -1106 -2 -1112 -16 -3 -9 -6 -81 -6 -160 l0 -144 -26 6 c-20 5 -25 3
-22 -9 2 -9 -1 -16 -7 -16 -5 -1 -11 5 -11 12 -1 6 -2 17 -3 22 -1 11 -113 11
-130 1 -6 -4 -19 -1 -31 6 -16 10 -24 10 -40 0 -11 -6 -27 -12 -35 -12 -18 0
-20 19 -2 21 6 1 17 2 22 4 6 1 15 3 21 3 7 1 15 9 18 18 4 12 2 15 -9 11 -8
-4 -17 -2 -20 3 -4 6 -13 10 -22 10 -8 0 -26 10 -39 23 -27 26 -32 52 -8 43
12 -5 15 -2 10 10 -4 9 -1 23 5 30 9 11 8 14 -2 14 -10 1 -8 4 4 11 25 15 21
27 -13 34 -34 7 -40 30 -10 38 12 3 24 -1 29 -11 8 -13 10 -10 9 16 l-1 32
-336 0 c-260 0 -332 -3 -323 -12 14 -14 16 -32 2 -23 -5 3 -15 -5 -22 -19 -11
-25 -28 -33 -41 -20 -3 3 -1 14 5 24 6 9 8 25 5 34 -6 15 -87 16 -952 16
l-945 0 0 -2046z m156 2019 c-4 -9 -2 -19 4 -23 7 -4 6 -12 -3 -23 -11 -15
-14 -15 -35 1 -21 16 -21 19 -7 40 19 26 50 31 41 5z m1089 -23 c-3 -5 -10
-10 -16 -10 -5 0 -9 5 -9 10 0 6 7 10 16 10 8 0 12 -4 9 -10z m760 -20 c4 -12
1 -27 -5 -35 -9 -11 -9 -15 -1 -15 17 0 13 -25 -8 -44 -19 -17 -18 -54 2 -67
6 -4 5 -18 -4 -38 -14 -30 -16 -31 -78 -22 -3 1 0 6 7 13 17 17 15 48 -3 48
-8 0 -15 5 -15 10 0 6 9 10 19 10 11 0 23 -4 26 -10 3 -5 11 -10 17 -10 7 0 7
5 -1 14 -6 8 -11 18 -10 22 1 5 1 17 0 28 -1 15 -4 16 -16 6 -20 -17 -27 -8
-20 22 5 21 11 24 37 20 21 -3 29 -1 24 7 -4 6 -16 11 -27 11 -26 0 -24 23 4
36 34 17 45 16 52 -6z m455 -15 c0 -8 -7 -15 -15 -15 -8 0 -15 7 -15 15 0 8 7
15 15 15 8 0 15 -7 15 -15z m-2310 -25 c0 -5 -5 -10 -11 -10 -5 0 -7 5 -4 10
3 6 8 10 11 10 2 0 4 -4 4 -10z m2360 0 c0 -5 -4 -10 -10 -10 -5 0 -10 5 -10
10 0 6 5 10 10 10 6 0 10 -4 10 -10z m-1 -30 c6 0 11 -7 11 -15 0 -8 -9 -15
-19 -15 -11 0 -28 -3 -38 -7 -16 -6 -16 -5 -4 10 7 9 11 23 8 31 -8 21 6 29
19 12 6 -9 16 -16 23 -16z m-2134 0 c3 -5 1 -10 -4 -10 -6 0 -11 5 -11 10 0 6
2 10 4 10 3 0 8 -4 11 -10z m1785 -25 c0 -8 -4 -15 -10 -15 -5 0 -10 7 -10 15
0 8 5 15 10 15 6 0 10 -7 10 -15z m-2015 -41 c-3 -53 -17 -73 -39 -55 -10 9
-13 19 -7 30 5 9 6 22 4 29 -6 15 14 42 32 42 7 0 11 -16 10 -46z m102 14 c-3
-8 -6 -5 -6 6 -1 11 2 17 5 13 3 -3 4 -12 1 -19z m1823 14 c0 -5 -11 -19 -25
-32 -21 -20 -25 -21 -25 -6 0 11 4 14 12 10 7 -5 9 -2 5 9 -3 9 -1 18 6 21 19
7 27 7 27 -2z m344 -17 c-6 -16 -34 -21 -34 -7 0 13 11 22 26 22 8 0 11 -6 8
-15z m-2020 -20 c21 -16 13 -35 -15 -35 -14 0 -19 7 -19 25 0 28 7 30 34 10z
m2126 -11 c0 -2 -7 -4 -15 -4 -8 0 -15 4 -15 10 0 5 7 7 15 4 8 -4 15 -8 15
-10z m-2420 -50 c0 -8 -7 -14 -15 -14 -8 0 -15 9 -15 20 0 13 5 18 15 14 8 -4
15 -12 15 -20z m2420 6 c0 -11 -7 -20 -15 -20 -13 0 -13 3 -3 20 7 11 14 20
15 20 2 0 3 -9 3 -20z m-182 -21 c-16 -10 -33 5 -23 21 5 8 11 8 21 -1 12 -10
12 -14 2 -20z m-818 7 c0 -3 -4 -8 -10 -11 -5 -3 -10 -1 -10 4 0 6 5 11 10 11
6 0 10 -2 10 -4z m905 -28 c28 -24 19 -38 -24 -38 -17 0 -22 4 -17 16 3 9 6
22 6 30 0 19 6 18 35 -8z m-2175 -18 c0 -5 -2 -10 -4 -10 -3 0 -8 5 -11 10 -3
6 -1 10 4 10 6 0 11 -4 11 -10z m30 0 c0 -5 -2 -10 -4 -10 -3 0 -8 5 -11 10
-3 6 -1 10 4 10 6 0 11 -4 11 -10z m1640 -30 c0 -5 -8 -10 -17 -10 -15 0 -16
2 -3 10 19 12 20 12 20 0z m1020 -461 c0 -17 -4 -20 -24 -15 -14 3 -28 2 -31
-4 -7 -11 -68 -14 -78 -3 -4 3 0 15 10 25 12 13 30 18 70 18 47 0 53 -2 53
-21z m-244 -26 c-10 -10 -19 5 -10 18 6 11 8 11 12 0 2 -7 1 -15 -2 -18z m805
-65 c61 -21 107 -58 128 -104 37 -78 21 -151 -28 -125 -11 6 -24 17 -28 24 -4
6 -30 23 -57 37 -27 13 -73 45 -103 69 -53 46 -65 75 -41 99 15 15 85 15 129
0z m-2621 -78 c0 -5 -9 -10 -20 -10 -11 0 -20 5 -20 10 0 6 9 10 20 10 11 0
20 -4 20 -10z m1563 -14 c-38 -45 -59 -61 -77 -58 -10 2 -23 -1 -29 -7 -6 -6
-20 -11 -31 -11 -18 0 -18 -2 -6 -10 11 -8 7 -9 -15 -4 -32 7 -58 24 -36 24 7
0 10 4 7 8 -3 5 -2 22 3 38 9 34 31 41 134 41 l68 0 -18 -21z m-207 -11 c0
-11 -5 -23 -10 -27 -7 -5 -7 -8 2 -8 6 0 12 -4 12 -10 0 -21 -36 -9 -72 25
-39 35 -49 35 -23 1 8 -10 12 -23 8 -29 -3 -5 1 -13 8 -18 11 -7 10 -9 -4 -9
-10 0 -20 -6 -23 -14 -8 -21 -33 -8 -29 15 2 10 -1 19 -7 19 -7 0 -7 4 0 13 6
7 9 22 8 32 -5 32 2 36 68 33 54 -3 62 -5 62 -23z m-146 -5 c0 -5 -2 -10 -4
-10 -3 0 -8 5 -11 10 -3 6 -1 10 4 10 6 0 11 -4 11 -10z m-169 -51 c12 -24 4
-36 -26 -39 -38 -4 -45 0 -45 24 0 39 52 50 71 15z m-363 -30 c12 -19 11 -24
-4 -38 -9 -9 -14 -10 -10 -3 5 9 -4 12 -33 12 -22 0 -43 5 -46 10 -3 6 5 10
18 10 14 0 27 7 31 15 8 21 29 19 44 -6z m2492 -14 c8 -25 8 -39 0 -55 -6 -12
-9 -29 -5 -38 6 -16 7 -16 19 0 12 17 14 17 28 0 29 -32 30 -58 3 -115 -14
-31 -25 -61 -25 -66 0 -6 -7 -11 -15 -11 -21 0 -90 38 -91 50 -1 6 -2 12 -3
14 -3 12 -61 -18 -66 -34 -3 -10 -12 -24 -20 -30 -12 -10 -17 -7 -26 13 -9 21
-7 32 16 73 54 95 150 234 162 234 6 0 17 -16 23 -35z m-1772 -12 c-10 -2 -26
-2 -35 0 -10 3 -2 5 17 5 19 0 27 -2 18 -5z m-798 -14 c13 -9 12 -10 -2 -5
-10 3 -20 1 -23 -3 -6 -10 53 -33 65 -26 3 2 20 0 36 -5 23 -7 16 -8 -39 -9
-51 -1 -69 3 -73 14 -4 8 -15 15 -25 15 -24 0 -25 17 -1 23 30 8 47 7 62 -4z
m675 1 c15 -7 9 -9 -25 -9 -33 -1 -41 2 -30 9 18 12 28 12 55 0z m-227 -17
c-16 -2 -40 -2 -55 0 -16 2 -3 4 27 4 30 0 43 -2 28 -4z m2955 -55 c9 -31 2
-33 -11 -3 -6 14 -8 25 -3 25 5 0 11 -10 14 -22z m-2663 -38 c0 -5 -4 -10 -10
-10 -5 0 -7 -6 -4 -14 3 -8 1 -23 -5 -33 -10 -17 -10 -17 -11 0 0 10 -5 15
-10 12 -6 -4 -8 -10 -5 -15 6 -9 -14 -8 -31 2 -6 4 -22 1 -37 -7 -33 -17 -143
-17 -158 1 -12 14 -3 21 35 28 16 3 31 8 34 10 3 3 11 1 19 -5 10 -9 13 -7 13
9 0 20 4 21 73 16 50 -3 66 -1 52 5 -17 8 -16 10 13 10 17 1 32 -3 32 -9z
m-367 -7 c-13 -2 -33 -2 -45 0 -13 2 -3 4 22 4 25 0 35 -2 23 -4z m100 0 c-13
-2 -33 -2 -45 0 -13 2 -3 4 22 4 25 0 35 -2 23 -4z m-178 -24 c-7 -10 -35 -1
-35 11 0 5 9 6 20 3 11 -3 17 -9 15 -14z m-72 -22 c-3 -5 -13 -7 -23 -4 -9 2
-26 0 -36 -5 -19 -9 -19 -9 0 6 10 8 23 13 28 10 4 -3 11 2 14 11 5 13 9 14
15 4 4 -7 5 -17 2 -22z m221 -9 c-4 -6 -2 -8 4 -4 6 3 13 2 17 -4 10 -15 -21
-23 -61 -15 l-36 6 33 18 c35 18 54 17 43 -1z m-309 3 c3 -5 1 -12 -5 -16 -5
-3 -10 1 -10 9 0 18 6 21 15 7z m2574 -139 c3 -77 2 -84 -15 -80 -11 2 -21 14
-24 28 -3 14 -11 25 -18 25 -17 0 -44 73 -37 101 2 11 14 33 26 48 l22 28 21
-33 c16 -26 22 -54 25 -117z m-2414 118 c3 -6 -1 -7 -9 -4 -18 7 -21 14 -7 14
6 0 13 -4 16 -10z m2018 -158 c-3 -12 -9 -22 -14 -22 -12 0 -11 7 3 30 15 24
19 21 11 -8z m436 -118 c6 -14 11 -29 11 -35 0 -15 -102 -144 -114 -144 -6 0
-29 31 -50 69 l-40 69 27 23 c15 13 44 26 65 29 20 3 44 10 52 14 21 12 35 4
49 -25z m-674 -34 c-3 -5 -13 -10 -21 -10 -8 0 -14 5 -14 10 0 6 9 10 21 10
11 0 17 -4 14 -10z m1778 -47 c-2 -15 3 -23 13 -23 8 0 12 -5 8 -11 -3 -6 -15
-9 -25 -6 -26 7 -24 -2 4 -13 20 -9 19 -9 -8 -7 -25 2 -30 6 -30 29 0 14 -3
30 -7 34 -16 15 -7 25 20 22 21 -2 27 -8 25 -25z m-2378 -3 c4 -6 -5 -10 -20
-10 -15 0 -24 4 -20 10 3 6 12 10 20 10 8 0 17 -4 20 -10z m-110 -20 c-3 -5
-14 -10 -23 -10 -15 0 -15 2 -2 10 20 13 33 13 25 0z m161 -68 c-13 -12 -18 9
-10 45 l8 38 4 -39 c2 -21 1 -41 -2 -44z m2364 -5 c0 -2 -16 -18 -35 -37 -19
-19 -35 -29 -35 -22 0 12 50 62 62 62 5 0 8 -1 8 -3z m-3224 -49 c-9 -44 -38
-63 -50 -33 -9 24 15 65 37 65 17 0 19 -5 13 -32z m-371 -18 c10 -11 21 -39
25 -63 4 -23 11 -61 15 -84 l8 -43 -50 0 c-39 0 -56 -5 -76 -24 -15 -14 -36
-27 -47 -31 -11 -3 -20 -14 -20 -24 0 -16 -10 -19 -82 -20 -46 -2 -96 -4 -111
-6 -22 -3 -35 4 -59 31 -26 28 -38 34 -71 34 -34 0 -38 2 -27 15 10 12 9 15
-5 15 -14 0 -16 6 -11 31 3 17 1 40 -5 51 -8 14 -8 23 0 31 6 6 11 19 11 28 0
17 19 29 46 29 10 0 14 -9 12 -27 -2 -22 2 -29 20 -31 22 -3 52 18 52 37 0 6
-5 11 -12 11 -8 0 -9 3 -2 10 6 6 44 15 85 21 258 35 280 36 304 9z m518 13
c-7 -2 -21 -2 -30 0 -10 3 -4 5 12 5 17 0 24 -2 18 -5z m3127 3 c0 -3 -4 -8
-10 -11 -5 -3 -10 -1 -10 4 0 6 5 11 10 11 6 0 10 -2 10 -4z m-5160 -51 c0
-14 -4 -25 -10 -25 -5 0 -10 11 -10 25 0 14 5 25 10 25 6 0 10 -11 10 -25z
m1611 -38 c-8 -8 -11 -5 -11 9 0 27 14 41 18 19 2 -9 -1 -22 -7 -28z m3567 8
c-3 -14 -2 -25 2 -25 4 0 10 -9 13 -20 5 -20 -15 -45 -26 -33 -9 8 -9 88 0 96
12 13 15 7 11 -18z m-3093 4 c10 -15 -1 -23 -20 -15 -9 3 -13 10 -10 16 8 13
22 13 30 -1z m551 -11 c5 -7 7 -26 6 -42 -2 -17 1 -27 4 -23 10 9 65 -43 58
-55 -6 -10 -97 -11 -91 0 3 4 1 17 -4 30 -7 18 -14 22 -29 17 -18 -6 -19 -4
-11 19 23 60 50 82 67 54z m-2341 -55 c-7 -31 -30 -59 -37 -46 -3 4 1 23 8 41
17 40 39 44 29 5z m1335 -19 c0 -14 -4 -22 -10 -19 -5 3 -10 17 -10 31 0 14 4
22 10 19 6 -3 10 -17 10 -31z m1397 10 c13 -4 20 -10 17 -15 -9 -15 -51 -10
-58 6 -6 16 5 18 41 9z m-2697 -129 c0 -43 -1 -45 -30 -45 -16 0 -30 3 -30 6
0 13 44 84 52 84 4 0 8 -20 8 -45z m1040 -72 c-1 -33 -6 -42 -41 -65 -21 -16
-53 -28 -69 -28 -23 0 -30 -4 -30 -20 0 -11 6 -20 13 -20 8 0 7 -3 -3 -10 -19
-12 -28 -2 -32 35 -3 28 -6 30 -42 30 -35 0 -39 -3 -50 -35 -9 -30 -16 -35
-44 -38 -27 -3 -33 0 -30 14 1 9 14 19 28 21 14 2 33 14 43 26 16 20 20 33 33
95 5 23 8 24 62 18 31 -4 77 -2 102 3 25 5 48 9 53 10 4 1 7 -16 7 -36z m1647
-31 c17 -20 -7 -42 -46 -42 -25 0 -31 4 -31 21 0 11 -4 17 -10 14 -5 -3 -10
-1 -10 5 0 7 9 14 19 17 13 3 18 10 14 20 -5 13 -1 12 23 -3 16 -9 34 -24 41
-32z m-233 4 c-3 -8 7 -18 25 -26 30 -12 42 -30 20 -30 -5 0 -7 -5 -3 -11 3
-6 0 -15 -7 -20 -19 -12 -32 -11 -23 2 3 6 -9 23 -27 39 -34 28 -34 28 -15 49
20 22 39 20 30 -3z m-2504 -36 c5 8 7 -5 4 -30 -4 -49 -14 -67 -14 -26 0 14
-7 29 -15 32 -9 4 -15 19 -15 38 l1 31 15 -29 c12 -21 18 -25 24 -16z m57 -27
c-2 -16 -4 -5 -4 22 0 28 2 40 4 28 2 -13 2 -35 0 -50z m1043 12 c0 -9 -9 -15
-22 -15 -21 0 -21 0 -2 15 24 18 24 18 24 0z m1307 -41 c-3 -3 -12 -4 -19 -1
-8 3 -5 6 6 6 11 1 17 -2 13 -5z m1484 -287 c8 -12 -1 -47 -12 -47 -5 0 -9 7
-9 16 0 9 -10 25 -22 36 l-23 20 30 -8 c17 -4 33 -11 36 -17z m-1225 -50 c7
-8 15 -50 9 -45 -5 5 -24 -4 -43 -19 -35 -26 -37 -26 -110 -16 -42 6 -85 7
-97 3 -26 -10 -39 -2 -43 27 -3 19 3 22 52 28 30 4 60 4 67 0 7 -5 10 -4 5 3
-11 17 46 32 104 26 30 -3 56 -7 56 -7z m59 -611 c16 -6 17 -9 5 -16 -10 -6
-11 -12 -2 -22 9 -11 7 -17 -10 -29 -48 -33 -107 -122 -109 -166 0 -11 -7 -4
-16 17 -25 60 -63 108 -96 121 -18 6 -47 21 -66 32 l-33 20 42 14 c23 8 56 12
74 10 40 -5 157 10 170 23 5 5 12 8 15 6 3 -2 15 -6 26 -10z m255 -130 c0 -8
3 -21 6 -30 4 -11 1 -16 -10 -16 -11 0 -16 9 -16 30 0 17 5 30 10 30 6 0 10
-6 10 -14z m47 -52 c-3 -3 -12 -4 -19 -1 -8 3 -5 6 6 6 11 1 17 -2 13 -5z
m-3384 -265 c-4 -12 0 -25 8 -30 10 -6 11 -11 3 -16 -7 -5 -14 -17 -17 -28 -2
-11 -5 6 -6 38 0 31 3 57 8 57 5 0 7 -9 4 -21z m63 6 c10 -26 -1 -35 -13 -10
-6 14 -7 25 -2 25 5 0 12 -7 15 -15z m471 -7 c-3 -8 -6 -5 -6 6 -1 11 2 17 5
13 3 -3 4 -12 1 -19z m153 0 c0 -16 -3 -19 -11 -11 -6 6 -8 16 -5 22 11 17 16
13 16 -11z m190 0 c-23 -25 -26 -51 -6 -67 35 -29 77 44 44 77 -9 9 -9 12 0
12 22 0 36 -46 26 -89 l-9 -39 -35 12 c-42 13 -60 52 -42 91 6 14 19 25 27 25
13 0 12 -4 -5 -22z m261 12 c1 -5 2 -32 3 -59 1 -38 -2 -47 -11 -39 -15 12
-18 108 -3 108 6 0 11 -4 11 -10z m-936 -30 c-3 -6 1 -7 9 -4 11 4 16 0 16
-10 0 -11 -9 -16 -26 -16 -19 0 -25 -4 -22 -17 2 -13 11 -17 28 -15 21 3 23 1
12 -9 -14 -15 -38 -5 -56 24 -8 12 -5 21 8 36 19 21 42 29 31 11z m200 0 c3
-6 -1 -7 -9 -4 -18 7 -21 14 -7 14 6 0 13 -4 16 -10z m233 -55 c1 -37 -1 -55
-6 -47 -5 8 -20 19 -33 26 -44 22 -32 91 15 84 18 -3 21 -11 24 -63z m97 55
c3 -5 1 -10 -4 -10 -6 0 -11 5 -11 10 0 6 2 10 4 10 3 0 8 -4 11 -10z m-613
-13 c-6 -7 -16 -24 -21 -38 -9 -22 -10 -21 -10 14 -1 31 2 37 20 37 17 0 19
-3 11 -13z m168 -1 c0 -7 9 -16 20 -19 28 -7 25 -35 -4 -43 -26 -6 -46 1 -46
17 0 6 7 6 19 0 18 -10 31 -6 31 10 0 4 -11 10 -25 13 -27 7 -35 36 -10 36 8
0 15 -6 15 -14z m84 -1 c3 -8 12 -15 20 -15 15 0 29 -27 20 -41 -7 -13 -51
-11 -60 2 -4 7 2 9 16 7 31 -4 36 15 8 27 -12 6 -23 16 -26 23 -5 17 15 15 22
-3z m634 -43 c9 2 18 12 20 23 7 38 22 40 22 3 0 -30 -4 -37 -26 -42 -31 -8
-54 8 -54 39 0 35 15 40 18 5 3 -23 8 -30 20 -28z m79 6 c-2 -13 -4 -5 -4 17
-1 22 1 32 4 23 2 -10 2 -28 0 -40z m-347 -12 c0 -3 -4 -8 -10 -11 -5 -3 -10
-1 -10 4 0 6 5 11 10 11 6 0 10 -2 10 -4z m4395 -207 c-4 -5 -11 -9 -16 -9 -5
0 -23 -10 -39 -21 -27 -21 -93 -30 -205 -30 -16 0 -32 -5 -36 -10 -3 -5 -13
-1 -23 10 -17 19 -17 20 24 31 22 6 49 10 58 9 9 -1 31 3 47 10 17 7 53 15 80
18 28 3 57 9 65 13 17 10 53 -7 45 -21z"/>
<path d="M1653 2235 c-7 -19 3 -85 15 -97 5 -5 26 -5 48 0 39 8 39 8 42 60 l3
52 -51 0 c-36 0 -52 -4 -57 -15z"/>
<path d="M1408 2077 c4 -44 4 -44 65 -38 4 1 7 19 7 41 0 40 0 40 -38 40 l-37
0 3 -43z"/>
<path d="M786 371 c-10 -16 5 -41 26 -41 14 0 19 6 16 22 -3 24 -32 36 -42 19z"/>
<path d="M4720 3218 c0 -5 17 -9 38 -9 20 -1 56 -3 80 -3 23 -1 42 1 42 6 0 9
-3 9 -97 11 -35 1 -63 -1 -63 -5z"/>
<path d="M4968 3213 c7 -3 16 -2 19 1 4 3 -2 6 -13 5 -11 0 -14 -3 -6 -6z"/>
<path d="M5018 3213 c7 -3 16 -2 19 1 4 3 -2 6 -13 5 -11 0 -14 -3 -6 -6z"/>
<path d="M5414 3199 c-2 -4 0 -10 6 -14 6 -4 8 -10 5 -15 -13 -21 16 -18 41 5
15 14 23 26 18 27 -28 4 -66 3 -70 -3z"/>
<path d="M4785 3170 c-9 -14 0 -23 26 -25 13 -1 19 4 17 14 -4 19 -33 27 -43
11z"/>
<path d="M4805 3110 c-3 -5 -2 -10 4 -10 5 0 13 5 16 10 3 6 2 10 -4 10 -5 0
-13 -4 -16 -10z"/>
<path d="M5174 3023 c3 -21 6 -47 6 -58 0 -18 7 -21 55 -22 l55 -1 0 33 c0 19
-4 45 -10 60 -8 22 -14 24 -37 19 -16 -4 -31 -11 -34 -17 -8 -12 -31 1 -24 14
4 5 1 9 -6 9 -8 0 -10 -12 -5 -37z m46 -44 c0 -11 -4 -17 -10 -14 -5 3 -10 15
-10 26 0 11 5 17 10 14 6 -3 10 -15 10 -26z"/>
<path d="M5000 3040 c0 -6 7 -10 15 -10 8 0 15 2 15 4 0 2 -7 6 -15 10 -8 3
-15 1 -15 -4z"/>
<path d="M5026 2943 c10 -49 13 -53 34 -53 17 0 20 6 20 40 0 38 -2 40 -30 40
-28 0 -30 -2 -24 -27z"/>
<path d="M5450 2924 c-6 -14 -10 -30 -10 -35 0 -5 -6 -12 -14 -15 -22 -8 -27
-46 -11 -89 14 -40 47 -114 66 -148 5 -10 7 -22 4 -26 -2 -5 2 -14 10 -21 13
-11 15 7 12 151 -3 158 -12 209 -38 209 -5 0 -14 -12 -19 -26z m18 -144 c16
-26 6 -46 -14 -29 -15 12 -20 49 -6 49 4 0 13 -9 20 -20z"/>
<path d="M5204 2799 c3 -17 6 -47 6 -65 l0 -34 60 0 60 0 0 34 c0 18 -3 48 -6
65 -6 31 -7 31 -66 31 l-60 0 6 -31z"/>
<path d="M5026 2781 c-3 -5 1 -11 9 -15 18 -6 45 2 45 15 0 12 -47 12 -54 0z"/>
</g>
</svg>
