<?xml version="1.0" standalone="no"?>
<!DOCTYPE svg PUBLIC "-//W3C//DTD SVG 20010904//EN"
 "http://www.w3.org/TR/2001/REC-SVG-20010904/DTD/svg10.dtd">
<svg version="1.0" xmlns="http://www.w3.org/2000/svg"
 width="551.000000pt" height="413.000000pt" viewBox="0 0 551.000000 413.000000"
 preserveAspectRatio="xMidYMid meet">

<g transform="translate(0.000000,413.000000) scale(0.100000,-0.100000)"
fill="#000000" stroke="none">
<path d="M7 4114 c-4 -4 -7 -931 -7 -2061 l0 -2053 2748 0 2749 0 -2 767 c-1
423 -2 780 -3 794 -1 15 -9 29 -17 33 -19 7 -20 46 -1 46 20 0 21 33 18 403
-2 211 -7 327 -14 327 -5 0 -12 -9 -15 -20 -7 -26 -29 -26 -45 0 -7 11 -18 20
-23 20 -6 0 -11 8 -12 18 -1 24 -11 106 -14 112 -4 10 -7 25 -8 46 -1 29 -24
36 -88 28 l-53 -6 0 -43 c0 -35 -4 -44 -21 -48 -24 -7 -21 -26 7 -41 30 -17
34 -27 35 -96 0 -36 4 -91 8 -122 4 -32 5 -58 2 -58 -11 0 -61 129 -62 157 -1
15 -5 42 -10 58 -8 29 -8 29 -6 -7 2 -29 0 -35 -10 -27 -7 6 -15 27 -18 48
-12 71 -16 81 -31 81 -10 0 -13 6 -9 19 4 13 0 20 -14 24 -18 4 -61 73 -61 96
0 5 18 7 40 4 l40 -6 0 46 c0 49 -6 54 -60 53 -34 -1 -35 -2 -32 -35 5 -45 -8
-35 -55 46 -47 82 -67 127 -52 118 7 -5 8 5 3 32 -13 69 -20 88 -35 89 -8 0
-26 2 -40 2 -20 2 -33 15 -62 65 -43 74 -85 136 -149 220 -110 144 -168 228
-168 241 0 58 456 455 661 577 l74 44 -130 5 c-72 3 -576 7 -1121 9 -821 2
-993 0 -1000 -11 -5 -7 -9 -85 -10 -173 l-2 -160 -29 0 c-19 0 -28 -5 -28 -17
0 -21 -15 -36 -16 -17 -2 21 -2 22 6 49 4 17 3 21 -3 11 -12 -17 -79 -22 -86
-6 -4 12 -28 13 -56 2 -20 -7 -50 -5 -50 3 0 16 30 31 50 25 11 -3 20 -2 20 3
0 15 -20 19 -72 16 -36 -2 -48 1 -48 12 0 8 -6 14 -14 14 -19 0 -42 30 -30 38
5 4 17 21 27 39 19 35 12 68 -15 68 -10 0 -18 5 -18 10 0 6 9 10 21 10 26 1
42 25 27 42 -6 7 -19 13 -29 13 -10 0 -20 4 -24 9 -8 13 -622 14 -630 1 -3 -6
1 -13 9 -16 9 -3 16 -15 16 -26 0 -10 -5 -16 -10 -13 -6 3 -10 0 -10 -8 0 -19
-26 -40 -39 -32 -7 4 -7 12 1 24 9 14 8 26 -2 50 l-12 31 -107 1 c-1215 7
-1768 8 -1774 3z m159 -59 c-3 -8 -1 -15 3 -15 5 0 7 -9 4 -20 -6 -23 -16 -25
-44 -10 -23 13 -24 24 -3 44 20 21 48 21 40 1z m1840 -37 c13 -21 4 -87 -16
-120 l-19 -31 -6 26 c-5 17 -14 27 -26 27 -14 0 -19 7 -19 26 0 24 3 26 30 21
17 -4 30 -2 30 3 0 5 -9 10 -20 12 -28 4 -28 20 1 35 30 16 36 16 45 1z
m-1850 -110 c-11 -15 -12 -25 -5 -34 15 -18 1 -56 -19 -52 -11 2 -17 15 -18
41 -1 32 4 41 23 50 12 5 23 17 24 26 0 10 2 11 6 4 2 -7 -2 -22 -11 -35z
m234 32 c0 -5 -4 -10 -10 -10 -5 0 -10 5 -10 10 0 6 5 10 10 10 6 0 10 -4 10
-10z m2140 -10 c0 -4 -13 -10 -30 -12 -28 -4 -29 -3 -14 13 15 17 44 16 44 -1z
m-360 -10 c0 -5 -4 -10 -10 -10 -5 0 -10 5 -10 10 0 6 5 10 10 10 6 0 10 -4
10 -10z m-90 -19 c0 -12 -20 -25 -27 -18 -7 7 6 27 18 27 5 0 9 -4 9 -9z m330
-11 c0 -5 -4 -10 -10 -10 -5 0 -10 5 -10 10 0 6 5 10 10 10 6 0 10 -4 10 -10z
m-2180 -10 c0 -5 -2 -10 -4 -10 -3 0 -8 5 -11 10 -3 6 -1 10 4 10 6 0 11 -4
11 -10z m170 -15 c10 -12 10 -19 1 -28 -9 -9 -14 -9 -21 3 -22 34 -4 54 20 25z
m1645 -5 c-3 -5 -10 -10 -16 -10 -5 0 -9 5 -9 10 0 6 7 10 16 10 8 0 12 -4 9
-10z m-45 -17 c0 -10 -7 -26 -14 -36 -13 -16 -15 -16 -30 -2 -22 22 -20 34 7
45 32 13 37 12 37 -7z m517 -25 c-3 -8 -6 -5 -6 6 -1 11 2 17 5 13 3 -3 4 -12
1 -19z m-2408 -7 c8 -5 9 -11 3 -15 -5 -3 -15 1 -22 9 -14 16 -3 20 19 6z
m2239 -9 c2 -7 -3 -12 -12 -12 -9 0 -16 7 -16 16 0 17 22 14 28 -4z m112 -2
c0 -5 -4 -10 -9 -10 -6 0 -13 5 -16 10 -3 6 1 10 9 10 9 0 16 -4 16 -10z m185
-10 c3 -5 -1 -10 -10 -10 -9 0 -13 5 -10 10 3 6 8 10 10 10 2 0 7 -4 10 -10z
m-195 -37 c0 -8 -13 -13 -30 -13 -16 0 -30 5 -30 10 0 6 4 10 10 10 5 0 7 7 4
14 -5 13 -2 13 20 3 14 -7 26 -18 26 -24z m-2190 7 c0 -5 -4 -10 -10 -10 -5 0
-10 5 -10 10 0 6 5 10 10 10 6 0 10 -4 10 -10z m2680 -20 c0 -5 -7 -10 -15
-10 -8 0 -15 5 -15 10 0 6 7 10 15 10 8 0 15 -4 15 -10z m10 -488 l0 -38 -58
-1 c-50 -1 -93 -9 -164 -29 -13 -4 -18 3 -24 31 -8 43 7 65 31 45 12 -10 15
-10 15 4 0 18 30 22 47 5 6 -6 17 -8 24 -3 7 4 26 9 43 11 16 2 32 5 34 8 3 3
16 5 29 5 20 0 23 -5 23 -38z m573 -82 c63 -24 111 -70 131 -126 31 -90 -21
-150 -69 -78 -8 13 -22 24 -30 24 -8 0 -39 20 -69 45 -30 24 -69 48 -88 53
-57 15 -45 87 16 95 17 2 36 5 43 5 7 1 36 -7 66 -18z m-1005 -85 c2 -10 0
-15 -7 -11 -6 4 -8 -1 -6 -13 5 -25 -11 -37 -57 -46 -30 -6 -39 -4 -44 9 -4
10 -12 15 -19 12 -7 -2 -15 4 -18 15 -3 12 0 19 9 19 8 0 14 5 14 10 0 11 -11
13 -34 4 -12 -5 -14 -10 -6 -19 7 -9 5 -16 -7 -26 -14 -12 -16 -12 -8 0 6 11
4 13 -11 7 -15 -6 -17 -5 -6 5 6 7 12 21 12 31 0 15 12 18 83 20 103 5 101 5
105 -17z m-1633 5 c-3 -5 -13 -10 -21 -10 -8 0 -14 5 -14 10 0 6 9 10 21 10
11 0 17 -4 14 -10z m1025 -77 c0 -10 -4 -24 -9 -31 -6 -11 -11 -10 -25 3 -13
13 -14 20 -5 31 16 20 39 17 39 -3z m232 -13 c-2 -16 -8 -30 -13 -30 -10 0
-12 21 -3 44 10 27 21 18 16 -14z m195 4 c-3 -3 -12 -4 -19 -1 -8 3 -5 6 6 6
11 1 17 -2 13 -5z m1728 -46 c4 -17 2 -35 -4 -41 -16 -16 -13 -47 4 -47 8 0
15 5 15 10 0 22 21 8 37 -24 15 -32 15 -36 -6 -78 -11 -24 -21 -49 -21 -55 0
-7 -7 -18 -15 -26 -12 -13 -19 -12 -55 5 -22 11 -40 26 -40 34 0 17 1 17 -39
3 -17 -6 -31 -17 -31 -24 0 -7 -7 -18 -15 -25 -12 -10 -18 -10 -30 0 -8 7 -15
18 -15 25 0 14 97 176 147 247 39 54 56 53 68 -4z m-2495 -4 c0 -2 -9 0 -20 6
-11 6 -20 13 -20 16 0 2 9 0 20 -6 11 -6 20 -13 20 -16z m643 -11 c-18 -2 -48
-2 -65 0 -18 2 -4 4 32 4 36 0 50 -2 33 -4z m-650 -40 c-7 -2 -19 -2 -25 0 -7
3 -2 5 12 5 14 0 19 -2 13 -5z m70 0 c-7 -2 -19 -2 -25 0 -7 3 -2 5 12 5 14 0
19 -2 13 -5z m-140 -10 c-7 -2 -21 -2 -30 0 -10 3 -4 5 12 5 17 0 24 -2 18 -5z
m3406 -37 c-3 -3 -11 5 -18 17 -13 21 -12 21 5 5 10 -10 16 -20 13 -22z
m-2796 -53 c4 9 6 9 6 0 2 -20 -15 -23 -35 -7 -18 14 -18 15 3 5 16 -8 23 -8
26 2z m2081 -67 c21 -45 23 -176 2 -176 -8 0 -17 13 -21 29 -4 18 -12 28 -22
27 -18 -1 -46 68 -38 95 9 26 46 70 55 64 4 -2 15 -20 24 -39z m903 -88 c-3
-7 -5 -2 -5 12 0 14 2 19 5 13 2 -7 2 -19 0 -25z m-1281 -54 c-3 -9 -6 -21 -6
-27 0 -7 -4 -7 -9 2 -10 16 -4 41 11 41 6 0 7 -7 4 -16z m-989 -86 c-3 -8 -6
-5 -6 6 -1 11 2 17 5 13 3 -3 4 -12 1 -19z m88 -8 c-3 -5 -1 -19 5 -31 10 -17
8 -25 -10 -44 -13 -13 -36 -29 -52 -34 -28 -10 -30 -9 -24 12 3 12 6 30 6 40
0 10 5 15 10 12 6 -3 22 7 36 24 25 30 42 42 29 21z m1339 -35 c6 -25 -7 -52
-46 -99 -10 -12 -26 -32 -36 -45 -10 -13 -23 -21 -29 -18 -12 7 -83 124 -83
136 0 14 87 51 118 51 17 0 34 5 37 10 10 15 32 -5 39 -35z m-1474 -85 c-12
-17 -31 -30 -43 -30 -25 -1 -139 -38 -119 -39 27 -2 1 -19 -38 -25 -47 -7 -86
0 -93 18 -4 9 10 12 51 9 54 -2 55 -2 22 8 -19 6 -39 15 -45 20 -5 5 -19 9
-32 9 -28 0 -31 25 -6 52 19 22 51 23 77 3 25 -19 78 -19 142 -1 62 18 98 23
102 14 2 -4 -6 -21 -18 -38z m-85 -70 c-3 -5 -13 -10 -21 -10 -8 0 -12 5 -9
10 3 6 13 10 21 10 8 0 12 -4 9 -10z m2676 -31 c-13 -11 -27 -17 -30 -13 -3 4
0 9 7 11 7 3 18 11 25 18 7 7 14 11 17 8 3 -3 -6 -13 -19 -24z m-3201 -24 c0
-24 -31 -51 -44 -38 -8 8 -8 48 1 56 3 4 15 7 25 7 12 0 18 -7 18 -25z m-372
-22 c19 -27 46 -168 36 -185 -3 -4 -25 -8 -49 -8 -31 0 -52 -7 -72 -23 -15
-13 -36 -26 -45 -30 -10 -3 -18 -13 -18 -21 0 -11 -25 -15 -111 -21 l-111 -7
-28 31 c-22 23 -37 31 -64 31 -43 0 -58 21 -44 63 7 19 7 31 1 36 -19 12 -24
48 -8 61 8 7 15 19 15 26 0 8 7 14 15 14 9 0 15 -9 15 -25 0 -22 4 -25 36 -25
21 0 33 4 29 10 -3 6 1 10 9 10 18 0 21 16 5 26 -22 13 8 23 106 34 55 7 127
15 160 20 99 12 102 12 123 -17z m-1519 -51 c0 -30 -2 -33 -9 -17 -12 28 -12
67 0 60 6 -3 10 -23 9 -43z m1627 -57 c5 -34 3 -47 -4 -40 -5 6 -13 33 -17 60
-5 36 -4 47 4 40 6 -6 14 -33 17 -60z m3558 36 c-3 -16 -1 -32 5 -35 11 -7 4
-36 -10 -36 -11 0 -23 65 -15 85 10 27 26 16 20 -14z m-4884 -48 c-1 -19 -22
-53 -34 -53 -9 0 -7 29 4 51 13 24 30 25 30 2z m1436 -60 c-11 -11 -17 4 -9
23 7 18 8 18 11 1 2 -10 1 -21 -2 -24z m-1406 -114 c-10 -12 -60 -20 -60 -9 0
6 12 29 28 52 l27 42 5 -40 c3 -21 3 -42 0 -45z m1050 -41 c-1 -29 -7 -37 -54
-65 -30 -18 -63 -33 -73 -33 -29 0 -35 -11 -16 -32 15 -17 15 -18 -5 -18 -18
0 -22 6 -22 34 0 39 -10 46 -60 38 -29 -4 -33 -3 -23 9 6 8 15 30 20 49 l9 35
105 6 c57 3 107 6 112 7 4 1 7 -13 7 -30z m-1113 -83 c9 -7 13 -22 10 -40 l-4
-30 -2 31 c0 18 -8 34 -16 38 -8 3 -15 13 -14 23 0 14 2 15 6 3 4 -8 13 -20
20 -25z m1110 -1 c-3 -3 -12 -4 -19 -1 -8 3 -5 6 6 6 11 1 17 -2 13 -5z m-269
-51 c-7 -10 -25 -19 -40 -21 -22 -2 -28 1 -28 18 0 15 7 20 25 20 13 0 30 6
37 14 19 20 24 -7 6 -31z m1577 -342 c3 -5 2 -12 -3 -15 -5 -3 -9 1 -9 9 0 17
3 19 12 6z m175 -15 c0 -18 -30 -30 -43 -17 -5 5 -6 14 -3 20 10 16 46 13 46
-3z m-2896 -1002 c9 -3 16 -16 15 -28 0 -20 -1 -20 -10 2 -6 17 -15 22 -31 20
-32 -4 -31 -40 2 -49 24 -7 24 -7 2 -8 -14 -1 -26 -10 -32 -23 -7 -18 -9 -10
-9 35 -1 54 0 57 23 57 13 0 31 -3 40 -6z m878 -11 c30 -27 20 -113 -14 -113
-24 0 -68 43 -68 67 0 26 28 63 47 63 9 0 25 -7 35 -17z m212 -48 c0 -30 -2
-55 -5 -55 -9 0 -20 87 -13 105 10 26 16 9 18 -50z m-1018 9 c-9 -8 -16 -24
-16 -35 0 -10 -4 -19 -10 -19 -11 0 -14 53 -3 63 3 4 15 7 25 7 18 0 18 -1 4
-16z m102 -6 c3 -14 -3 -18 -23 -18 -17 0 -25 -5 -22 -12 2 -7 14 -13 26 -12
23 1 28 -11 8 -19 -31 -12 -64 52 -40 77 13 13 48 1 51 -16z m87 12 c3 -6 -1
-7 -9 -4 -9 3 -16 1 -16 -5 0 -6 6 -11 14 -11 16 0 29 -27 20 -41 -7 -12 -54
-12 -54 0 0 5 9 7 20 4 29 -8 25 16 -5 27 -25 9 -31 21 -18 33 10 10 41 8 48
-3z m75 -2 c-24 -10 -24 -10 -5 -18 19 -8 19 -9 -2 -9 -12 -1 -25 4 -28 9 -10
17 5 30 33 29 l27 0 -25 -11z m250 -45 c0 -32 -4 -53 -8 -48 -4 6 -19 18 -34
28 -16 10 -28 25 -27 35 0 13 3 11 9 -5 6 -14 18 -23 30 -23 17 0 21 5 18 28
-2 22 -8 27 -26 25 -13 -2 -21 1 -17 7 3 6 17 10 31 10 23 0 24 -3 24 -57z
m366 -13 c8 0 21 15 29 33 l14 32 1 -37 c0 -21 -4 -38 -9 -38 -5 0 -16 -3 -24
-6 -21 -8 -47 23 -46 54 1 26 1 25 10 -5 5 -19 16 -33 25 -33z m81 8 c-2 -13
-4 -5 -4 17 -1 22 1 32 4 23 2 -10 2 -28 0 -40z m-672 -7 c-7 -13 -52 -15 -59
-3 -3 5 8 6 25 4 19 -3 29 0 29 9 0 7 3 10 6 6 3 -3 3 -10 -1 -16z m4598 -220
c14 -2 -2 -18 -21 -23 -12 -4 -18 1 -19 12 -1 12 4 17 15 15 9 -2 21 -4 25 -4z
m-212 -34 c-1 -12 -15 -9 -19 4 -3 6 1 10 8 8 6 -3 11 -8 11 -12z"/>
<path d="M2450 3075 c0 -8 4 -15 8 -15 5 0 9 7 9 15 0 8 -4 15 -9 15 -4 0 -8
-7 -8 -15z"/>
<path d="M1657 2224 c-4 -4 -7 -32 -7 -61 l0 -54 48 3 47 3 0 55 0 55 -40 3
c-23 2 -44 0 -48 -4z"/>
<path d="M1407 2093 c-4 -3 -7 -24 -7 -45 0 -37 1 -38 35 -38 35 0 35 0 35 45
0 43 -1 45 -28 45 -16 0 -32 -3 -35 -7z"/>
<path d="M1062 388 c-15 -15 -16 -75 -1 -84 6 -3 14 -2 18 3 3 5 14 12 24 16
19 7 22 29 7 58 -12 22 -30 25 -48 7z"/>
<path d="M4706 3190 c5 -5 20 -10 33 -12 19 -2 27 -13 38 -50 16 -58 43 -66
43 -14 0 19 -6 36 -12 39 -10 3 -10 8 -2 17 18 19 49 8 50 -18 2 -39 12 -35
16 7 l3 40 -89 0 c-49 0 -85 -4 -80 -9z"/>
<path d="M5200 3181 c0 -5 5 -13 10 -16 6 -3 10 -2 10 4 0 5 -4 13 -10 16 -5
3 -10 2 -10 -4z"/>
<path d="M5401 3161 c16 -46 35 -57 50 -30 11 21 12 22 25 5 12 -17 13 -16 10
6 -4 39 -15 48 -56 48 -39 0 -39 0 -29 -29z"/>
<path d="M5266 3171 c-4 -7 -5 -15 -2 -18 9 -9 19 4 14 18 -4 11 -6 11 -12 0z"/>
<path d="M5166 3032 c-6 -6 7 -108 15 -116 5 -5 14 -5 21 2 9 7 19 7 28 2 23
-15 57 -12 63 5 4 8 2 17 -3 20 -6 4 -10 21 -10 40 0 19 -5 37 -10 40 -10 6
-99 12 -104 7z"/>
<path d="M4995 3010 c3 -5 10 -10 16 -10 5 0 9 5 9 10 0 6 -7 10 -16 10 -8 0
-12 -4 -9 -10z"/>
<path d="M5458 3003 c6 -2 18 -2 25 0 6 3 1 5 -13 5 -14 0 -19 -2 -12 -5z"/>
<path d="M4990 2941 c0 -6 7 -11 15 -11 10 0 15 -10 15 -29 0 -27 14 -41 41
-41 6 0 9 19 7 42 -3 41 -4 42 -40 46 -23 2 -38 -1 -38 -7z"/>
<path d="M5447 2922 c-9 -9 -19 -29 -22 -44 -4 -16 -11 -28 -15 -28 -15 0 -17
-51 -4 -90 7 -21 27 -66 44 -101 16 -34 30 -70 31 -78 0 -11 2 -10 7 4 4 11 6
93 4 182 -2 124 -6 162 -17 166 -7 3 -20 -2 -28 -11z m13 -178 c0 -19 -16 -18
-24 2 -11 27 -7 37 9 24 8 -7 15 -19 15 -26z"/>
<path d="M5197 2803 c-4 -3 -4 -25 -1 -47 11 -87 8 -83 71 -82 53 1 58 3 61
25 2 13 -2 44 -8 67 l-13 44 -52 0 c-28 0 -55 -3 -58 -7z"/>
<path d="M5025 2760 c-19 -7 -19 -7 0 -18 15 -7 25 -7 38 3 17 12 17 13 0 17
-10 3 -27 2 -38 -2z"/>
</g>
</svg>
