<?xml version="1.0" standalone="no"?>
<!DOCTYPE svg PUBLIC "-//W3C//DTD SVG 20010904//EN"
 "http://www.w3.org/TR/2001/REC-SVG-20010904/DTD/svg10.dtd">
<svg version="1.0" xmlns="http://www.w3.org/2000/svg"
 width="552.000000pt" height="416.000000pt" viewBox="0 0 552.000000 416.000000"
 preserveAspectRatio="xMidYMid meet">

<g transform="translate(0.000000,416.000000) scale(0.100000,-0.100000)"
fill="#000000" stroke="none">
<path d="M0 2095 l0 -2066 2734 2 2733 2 7 206 c10 322 6 1247 -6 1316 -5 33
-16 72 -24 87 -19 35 -18 48 5 48 17 0 18 15 19 330 1 209 -2 332 -9 336 -5 3
-7 14 -4 24 8 26 -12 35 -25 11 -9 -17 -14 -19 -34 -9 -25 11 -33 28 -50 113
-1 6 -5 16 -10 23 -4 7 -5 25 -1 41 11 52 -30 71 -115 55 -30 -6 -32 -9 -27
-39 6 -36 0 -48 -25 -58 -26 -9 -22 -20 12 -39 22 -12 30 -25 31 -45 1 -81 9
-186 14 -203 11 -36 -4 -21 -29 28 -13 26 -27 65 -31 85 -4 20 -11 37 -16 37
-14 0 -39 57 -39 90 0 23 -5 33 -20 37 -20 5 -28 23 -10 23 19 0 10 18 -13 24
-13 3 -28 19 -36 38 -8 18 -18 40 -22 49 -6 13 -1 15 32 12 l40 -4 -3 47 -3
47 -42 4 c-40 4 -43 2 -43 -21 0 -42 -13 -31 -57 47 -35 61 -43 85 -49 150
l-7 77 -38 0 c-43 0 -41 -2 -132 140 -23 36 -46 72 -52 81 -5 9 -58 80 -117
159 -81 108 -105 146 -99 159 14 26 289 291 371 357 96 78 241 182 305 220
l50 29 -135 5 c-74 3 -579 7 -1122 9 l-987 3 -5 -24 c-3 -12 -7 -39 -8 -58 -3
-32 -6 -35 -36 -36 -18 -1 -34 -3 -36 -5 -8 -8 -9 -115 -2 -127 4 -7 20 -12
35 -12 33 0 41 -18 41 -89 l0 -44 -36 6 c-40 7 -56 17 -36 24 8 3 5 11 -10 23
-13 10 -25 15 -28 10 -9 -13 -50 -22 -50 -11 0 6 5 11 10 11 6 0 10 5 10 10 0
6 -7 10 -15 10 -8 0 -15 -4 -15 -9 0 -13 -63 -11 -72 3 -15 22 -8 28 26 24 19
-2 32 0 30 4 -3 4 -16 8 -28 8 -30 0 -41 16 -45 60 -3 31 -1 33 14 20 9 -8 21
-24 26 -37 5 -13 16 -23 24 -23 13 0 15 11 13 62 -2 38 -8 63 -15 66 -9 2 -13
-7 -13 -29 l0 -34 -31 38 c-35 43 -52 48 -43 12 4 -15 2 -25 -4 -25 -6 0 -12
12 -14 26 -3 26 -14 37 -52 49 -14 4 -16 9 -9 16 8 8 17 8 31 0 19 -10 21 -8
20 19 -1 17 -7 31 -15 31 -27 3 -31 4 -39 12 -11 11 -622 8 -629 -4 -4 -5 1
-12 9 -15 22 -8 20 -21 -9 -51 -29 -32 -37 -27 -39 26 -1 22 -5 43 -8 46 -2 3
-424 8 -936 10 l-932 6 0 -2066z m850 2025 c0 -5 -4 -10 -10 -10 -5 0 -10 5
-10 10 0 6 5 10 10 10 6 0 10 -4 10 -10z m-707 -25 c-3 -8 -1 -15 5 -15 6 0 8
-9 5 -21 -4 -15 -11 -19 -27 -15 -11 3 -24 6 -28 6 -17 0 -7 40 14 54 24 17
40 13 31 -9z m1845 -35 c15 -24 8 -40 -17 -40 -30 0 -43 21 -24 42 21 23 25
23 41 -2z m-1688 -35 c7 -8 8 -15 2 -15 -5 0 -15 7 -22 15 -7 8 -8 15 -2 15 5
0 15 -7 22 -15z m2598 -8 c7 -8 9 -29 5 -50 -4 -27 -11 -37 -24 -37 -23 0 -25
28 -4 36 19 8 20 24 1 24 -21 0 -31 21 -15 31 19 12 25 11 37 -4z m-908 -27
c0 -11 -7 -23 -15 -26 -8 -4 -15 -15 -15 -25 0 -10 -5 -19 -11 -19 -6 0 -9 7
-5 15 3 8 1 15 -4 15 -6 0 -10 7 -10 15 0 8 5 15 10 15 6 0 10 7 10 15 0 8 9
15 20 15 13 0 20 -7 20 -20z m-1830 -6 c0 -3 -7 -13 -16 -21 -11 -11 -14 -26
-10 -47 7 -36 -6 -61 -27 -53 -19 7 -20 87 -1 87 8 0 19 9 26 20 12 19 28 27
28 14z m1976 -31 c-10 -10 -19 5 -10 18 6 11 8 11 12 0 2 -7 1 -15 -2 -18z
m324 7 c0 -5 -5 -10 -11 -10 -5 0 -7 5 -4 10 3 6 8 10 11 10 2 0 4 -4 4 -10z
m110 -10 c0 -5 -5 -10 -11 -10 -5 0 -7 5 -4 10 3 6 8 10 11 10 2 0 4 -4 4 -10z
m-520 -16 c0 -9 -7 -14 -17 -12 -25 5 -28 28 -4 28 12 0 21 -6 21 -16z m594
-36 c17 -12 0 -19 -27 -13 -25 7 -26 10 -11 53 5 15 8 13 17 -8 6 -14 16 -28
21 -32z m-254 32 c0 -5 -5 -10 -11 -10 -5 0 -7 5 -4 10 3 6 8 10 11 10 2 0 4
-4 4 -10z m-2000 -39 c0 -11 -26 -22 -34 -14 -3 4 -6 15 -6 25 0 16 3 17 20 8
11 -6 20 -15 20 -19z m1583 7 c16 -8 16 -10 0 -32 -22 -29 -62 -30 -55 -2 3
11 -2 22 -12 28 -45 25 17 31 67 6z m524 -40 c-3 -8 -6 -5 -6 6 -1 11 2 17 5
13 3 -3 4 -12 1 -19z m-2405 -20 c-13 -13 -32 -2 -32 18 0 12 4 13 21 3 14 -7
18 -14 11 -21z m2238 7 c0 -8 -6 -15 -14 -15 -17 0 -28 14 -19 24 12 12 33 6
33 -9z m100 -1 c0 -8 -4 -12 -10 -9 -5 3 -10 10 -10 16 0 5 5 9 10 9 6 0 10
-7 10 -16z m-40 -19 c0 -8 -4 -15 -10 -15 -5 0 -10 7 -10 15 0 8 5 15 10 15 6
0 10 -7 10 -15z m240 -10 c0 -14 -4 -25 -8 -25 -4 0 -9 11 -10 25 -1 14 3 25
8 25 6 0 10 -11 10 -25z m70 -10 c10 -13 9 -15 -9 -15 -12 0 -21 6 -21 15 0 8
4 15 9 15 5 0 14 -7 21 -15z m-270 -5 c0 -12 -48 -25 -58 -16 -8 9 18 26 41
26 9 0 17 -4 17 -10z m500 -470 c0 -5 -8 -10 -17 -10 -15 0 -16 2 -3 10 19 12
20 12 20 0z m-152 -27 c-2 -10 -13 -19 -26 -21 -17 -3 -22 2 -22 17 0 16 6 21
26 21 19 0 25 -5 22 -17z m-60 -10 c2 -8 -5 -13 -17 -13 -12 0 -21 6 -21 16 0
18 31 15 38 -3z m773 -85 c84 -29 129 -79 144 -161 8 -44 -8 -56 -38 -29 -12
11 -49 37 -81 57 -55 35 -78 56 -129 122 l-18 23 44 0 c24 0 59 -5 78 -12z
m-2640 -81 c-13 -13 -26 -3 -16 12 3 6 11 8 17 5 6 -4 6 -10 -1 -17z m1634 14
c7 -13 -50 -78 -76 -86 -10 -4 -29 1 -41 10 -23 16 -23 16 7 9 21 -4 27 -3 20
4 -8 8 -60 20 -97 22 -5 0 -8 5 -8 11 0 7 12 9 34 5 25 -5 35 -3 39 8 4 9 23
16 49 19 24 2 48 4 55 5 6 1 14 -2 18 -7z m-359 -53 c5 -7 2 -8 -7 -3 -11 6
-11 5 -3 -4 9 -9 9 -20 1 -42 -16 -42 -23 -36 -19 16 4 44 14 56 28 33z m-227
-32 c10 -12 7 -18 -13 -31 -14 -9 -30 -14 -36 -10 -11 7 -14 38 -3 48 11 12
40 8 52 -7z m-374 -16 c3 -5 0 -10 -7 -10 -10 0 -10 -2 1 -9 20 -13 -5 -24
-26 -12 -10 6 -12 11 -5 11 6 0 12 7 12 15 0 17 16 20 25 5z m2506 -14 c7 -14
9 -40 5 -60 -9 -49 -9 -51 8 -54 10 -2 16 4 16 14 0 16 2 16 14 4 19 -21 37
-78 26 -85 -5 -3 -16 -27 -26 -53 -9 -26 -21 -51 -25 -56 -10 -11 -75 19 -87
40 -11 20 -62 2 -69 -25 -6 -23 -34 -32 -57 -19 -22 13 -16 31 49 137 66 109
116 181 127 181 5 0 13 -11 19 -24z m-1842 -42 c2 -2 -21 -4 -53 -4 -37 0 -55
4 -51 10 6 10 92 4 104 -6z m-771 -6 c-6 -18 -28 -21 -28 -4 0 9 7 16 16 16 9
0 14 -5 12 -12z m485 -5 c-13 -2 -33 -2 -45 0 -13 2 -3 4 22 4 25 0 35 -2 23
-4z m-370 -30 c-13 -2 -33 -2 -45 0 -13 2 -3 4 22 4 25 0 35 -2 23 -4z m54 1
c-3 -3 -12 -4 -19 -1 -8 3 -5 6 6 6 11 1 17 -2 13 -5z m-290 -30 c-3 -3 -12
-4 -19 -1 -8 3 -5 6 6 6 11 1 17 -2 13 -5z m3583 -29 c0 -5 -5 -3 -10 5 -5 8
-10 20 -10 25 0 6 5 3 10 -5 5 -8 10 -19 10 -25z m-2835 -45 c3 -5 1 -10 -4
-10 -6 0 -11 5 -11 10 0 6 2 10 4 10 3 0 8 -4 11 -10z m55 -14 c0 -2 -9 -2
-20 1 -11 3 -20 9 -20 15 0 5 9 4 20 -2 11 -6 20 -12 20 -14z m2056 -43 c21
-49 28 -183 9 -183 -7 0 -18 14 -25 31 -9 21 -15 27 -21 17 -6 -9 -10 -7 -14
7 -4 11 -11 30 -16 43 -5 13 -9 31 -9 40 0 22 37 82 50 82 5 0 17 -17 26 -37z
m906 -95 c-9 -9 -12 -7 -12 12 0 19 3 21 12 12 9 -9 9 -15 0 -24z m-856 -155
c24 -32 15 -64 -37 -129 -28 -35 -54 -64 -57 -64 -12 0 -82 119 -82 139 0 18
67 51 103 51 20 0 39 5 42 10 9 14 16 12 31 -7z m-591 -53 c-3 -5 -12 -10 -20
-10 -8 0 -17 5 -20 10 -4 6 5 10 20 10 15 0 24 -4 20 -10z m-595 -10 c11 -7 7
-10 -18 -10 -20 0 -31 4 -27 10 8 13 26 13 45 0z m2294 -35 c3 -9 0 -15 -9
-15 -9 0 -12 6 -9 15 4 8 7 15 9 15 2 0 5 -7 9 -15z m6 -51 c0 -2 -9 -4 -21
-4 -11 0 -18 4 -14 10 5 8 35 3 35 -6z m6 -70 c-15 -14 -30 -23 -34 -19 -4 4
6 17 23 30 38 31 47 22 11 -11z m-3198 -21 c-3 -40 -30 -58 -41 -28 -9 22 10
65 28 65 13 0 15 -9 13 -37z m-371 -26 c29 -42 57 -168 40 -179 -7 -4 -31 -8
-54 -8 -30 0 -50 -7 -71 -25 -17 -14 -35 -25 -41 -25 -6 0 -11 -9 -11 -20 0
-18 -7 -20 -67 -20 -38 0 -91 -3 -119 -6 -47 -6 -53 -4 -59 15 -8 27 -42 45
-78 43 -22 -2 -30 3 -38 25 -7 19 -7 33 -1 44 8 12 6 21 -6 32 -12 13 -14 24
-6 54 7 32 14 39 38 41 16 2 33 -1 39 -7 8 -8 6 -11 -6 -11 -25 0 -21 -19 6
-29 27 -10 69 26 54 47 -6 7 -8 15 -5 17 2 3 49 10 104 16 54 7 122 15 149 19
98 14 108 12 132 -23z m3653 29 c0 -3 -4 -8 -10 -11 -5 -3 -10 -1 -10 4 0 6 5
11 10 11 6 0 10 -2 10 -4z m-5164 -48 c-3 -13 -6 -27 -7 -33 -1 -12 -17 25
-18 43 -1 6 6 12 15 12 12 0 15 -6 10 -22z m2689 -49 c-15 -28 -35 -39 -35
-19 0 18 32 60 41 54 5 -3 2 -18 -6 -35z m2490 12 c-3 -11 0 -29 7 -40 10 -16
10 -23 1 -32 -10 -10 -14 -7 -22 12 -10 28 -4 79 11 79 5 0 7 -9 3 -19z
m-4891 -83 c-8 -15 -19 -28 -24 -28 -13 0 -13 4 5 48 12 28 18 33 25 22 5 -9
3 -24 -6 -42z m1336 20 c0 -25 -3 -29 -10 -18 -13 20 -13 50 0 50 6 0 10 -15
10 -32z m1130 -23 c0 -16 -35 -21 -44 -6 -8 12 4 21 26 21 10 0 18 -7 18 -15z
m-1015 -5 c-3 -5 -10 -10 -16 -10 -5 0 -9 5 -9 10 0 6 7 10 16 10 8 0 12 -4 9
-10z m-1406 -126 c1 -18 -6 -23 -34 -26 -19 -2 -35 -2 -35 0 0 3 12 25 28 48
25 41 27 42 34 22 3 -13 6 -33 7 -44z m1041 -59 c-1 -39 -63 -85 -115 -85 -39
0 -48 -23 -17 -46 15 -12 15 -13 -10 -14 -24 0 -27 4 -30 38 -3 35 -5 37 -40
37 -31 0 -35 2 -27 17 5 9 9 30 9 46 0 16 2 31 4 33 2 2 54 4 115 4 l111 0 0
-30z m-1043 -37 c-3 -8 -6 -5 -6 6 -1 11 2 17 5 13 3 -3 4 -12 1 -19z m-59
-77 l-1 -36 -4 33 c-3 18 -11 36 -19 39 -8 3 -14 12 -14 21 0 13 3 12 20 -3
14 -12 20 -29 18 -54z m1102 39 c0 -5 -8 -10 -17 -10 -15 0 -16 2 -3 10 19 12
20 12 20 0z m-250 -27 c-2 -36 -82 -64 -88 -30 -3 13 3 17 27 17 16 0 33 5 36
10 7 12 25 13 25 3z m3037 -225 c-3 -8 -6 -5 -6 6 -1 11 2 17 5 13 3 -3 4 -12
1 -19z m-1275 -93 c4 -24 -27 -33 -36 -9 -7 19 13 49 25 37 4 -4 9 -17 11 -28z
m1283 17 c-3 -3 -11 0 -18 7 -9 10 -8 11 6 5 10 -3 15 -9 12 -12z m-4201
-1088 c9 -3 16 -16 15 -28 0 -21 0 -21 -9 2 -6 15 -18 22 -35 22 -20 0 -25 -5
-25 -25 0 -20 5 -25 28 -26 l27 -2 -27 -4 c-20 -3 -28 -11 -31 -31 -2 -15 -5
1 -6 36 -1 59 0 62 23 62 13 0 31 -3 40 -6z m633 -26 c-3 -7 -5 -2 -5 12 0 14
2 19 5 13 2 -7 2 -19 0 -25z m249 7 c20 -30 11 -105 -13 -105 -18 0 -56 19
-65 34 -21 31 7 96 42 96 11 0 27 -11 36 -25z m208 0 c7 -19 -3 -47 -15 -39
-12 7 -12 54 0 54 5 0 11 -7 15 -15z m-1013 -24 c-8 -5 -20 -22 -27 -38 l-12
-28 -1 31 c-1 36 5 44 33 44 16 0 18 -2 7 -9z m97 -13 c3 -13 -3 -18 -22 -18
-17 0 -26 -5 -26 -16 0 -12 7 -15 25 -12 14 3 25 1 25 -3 0 -15 -47 -10 -60 6
-20 24 3 67 32 63 13 -2 24 -11 26 -20z m92 11 c0 -5 -4 -7 -10 -4 -5 3 -15 3
-21 -1 -7 -4 -2 -11 12 -18 12 -6 24 -17 27 -24 4 -14 -36 -32 -55 -25 -23 9
-14 20 12 15 15 -2 25 0 25 7 0 6 -11 16 -25 21 -25 9 -31 21 -18 33 10 11 53
8 53 -4z m73 4 c-27 -5 -30 -20 -5 -26 13 -4 12 -5 -5 -6 -12 0 -25 4 -29 10
-8 14 14 29 41 27 17 -1 17 -1 -2 -5z m247 -49 c0 -50 -1 -54 -16 -40 -8 9
-21 16 -29 16 -13 0 -29 29 -20 38 2 3 7 -3 11 -12 10 -27 44 -20 44 9 0 29
-28 45 -41 24 -7 -11 -9 -11 -9 4 0 12 8 17 30 17 30 0 30 0 30 -56z m100 52
c0 -3 -4 -8 -10 -11 -5 -3 -10 -1 -10 4 0 6 5 11 10 11 6 0 10 -2 10 -4z m347
-58 c-2 -13 -4 -3 -4 22 0 25 2 35 4 23 2 -13 2 -33 0 -45z m-79 -6 c10 2 18
15 20 31 5 39 22 34 22 -7 0 -28 -4 -34 -26 -39 -28 -5 -54 15 -54 42 0 32 15
33 18 1 3 -23 8 -30 20 -28z m-590 6 c-6 -16 -47 -23 -60 -10 -6 6 0 8 16 5
15 -3 26 -1 26 6 0 6 5 11 11 11 6 0 9 -6 7 -12z m726 -4 c9 -24 7 -28 -9 -14
-17 14 -20 30 -6 30 5 0 12 -7 15 -16z m3813 -231 c6 -19 -32 -33 -103 -40
-83 -8 -85 11 -3 38 59 20 100 21 106 2z"/>
<path d="M2415 3091 c-6 -11 9 -23 19 -14 9 9 7 23 -3 23 -6 0 -12 -4 -16 -9z"/>
<path d="M1624 2256 c-3 -7 -4 -33 -2 -57 3 -37 7 -44 27 -47 12 -2 34 -1 47
2 22 6 24 12 24 61 l0 55 -45 0 c-30 0 -47 -5 -51 -14z"/>
<path d="M1340 2149 c0 -5 5 -7 10 -4 6 3 10 8 10 11 0 2 -4 4 -10 4 -5 0 -10
-5 -10 -11z"/>
<path d="M1376 2132 c-3 -5 -3 -26 1 -46 5 -34 8 -37 37 -34 29 3 31 6 34 46
3 42 3 42 -32 42 -19 0 -37 -4 -40 -8z"/>
<path d="M1036 418 c-32 -45 -8 -92 34 -66 16 10 20 21 18 48 -4 42 -29 51
-52 18z"/>
<path d="M2749 4034 c-7 -8 -7 -14 1 -19 7 -4 8 -25 4 -56 -6 -46 -5 -49 16
-49 19 0 21 5 19 38 -3 58 0 72 16 72 8 0 15 4 15 9 0 14 -59 19 -71 5z"/>
<path d="M2831 3834 c0 -11 3 -14 6 -6 3 7 2 16 -1 19 -3 4 -6 -2 -5 -13z"/>
<path d="M4686 3231 c9 -10 98 -17 124 -10 10 3 16 -5 18 -23 5 -40 19 -34 18
7 l-1 35 -84 0 c-53 0 -81 -4 -75 -9z"/>
<path d="M4938 3233 c7 -3 16 -2 19 1 4 3 -2 6 -13 5 -11 0 -14 -3 -6 -6z"/>
<path d="M4997 3219 c4 -13 8 -18 11 -10 2 7 -1 18 -6 23 -8 8 -9 4 -5 -13z"/>
<path d="M5170 3220 c0 -5 5 -10 10 -10 6 0 10 5 10 10 0 6 -4 10 -10 10 -5 0
-10 -4 -10 -10z"/>
<path d="M5376 3223 c-9 -9 9 -55 25 -64 16 -8 19 -6 19 10 0 14 5 19 15 15
10 -4 15 0 15 15 0 12 -3 22 -7 22 -20 4 -64 5 -67 2z"/>
<path d="M4750 3188 c0 -38 12 -68 26 -68 7 0 15 3 17 8 10 15 -6 63 -24 73
-16 8 -19 6 -19 -13z"/>
<path d="M5140 3023 c0 -28 5 -55 11 -59 6 -3 30 -7 55 -9 46 -3 72 14 58 37
-4 7 -10 28 -14 48 -5 35 -6 35 -58 35 l-52 0 0 -52z"/>
<path d="M4960 3050 c0 -5 6 -10 14 -10 8 0 18 5 21 10 3 6 -3 10 -14 10 -12
0 -21 -4 -21 -10z"/>
<path d="M5425 3050 c-3 -5 1 -10 9 -10 9 0 16 5 16 10 0 6 -4 10 -9 10 -6 0
-13 -4 -16 -10z"/>
<path d="M4960 2980 c0 -5 7 -10 15 -10 14 0 17 -5 19 -39 1 -17 43 -34 51
-21 3 5 3 25 -1 45 -6 33 -9 35 -45 35 -22 0 -39 -4 -39 -10z"/>
<path d="M5414 2952 c-4 -15 -16 -37 -27 -49 -27 -30 -18 -92 28 -186 19 -39
35 -79 35 -89 0 -10 5 -18 10 -18 14 0 13 259 -1 315 -13 53 -36 66 -45 27z
m18 -167 c4 -20 3 -23 -8 -14 -16 13 -19 39 -5 39 5 0 11 -11 13 -25z"/>
<path d="M5170 2803 c0 -85 4 -89 68 -88 l57 0 0 50 c-1 79 -6 85 -70 85 l-55
0 0 -47z"/>
<path d="M4990 2795 c0 -9 9 -15 25 -15 16 0 25 6 25 15 0 9 -9 15 -25 15 -16
0 -25 -6 -25 -15z"/>
<path d="M5130 2463 c0 -4 5 -15 10 -23 8 -13 10 -13 10 2 0 9 -4 20 -10 23
-5 3 -10 3 -10 -2z"/>
</g>
</svg>
